<svg version="1.1" xmlns="http://www.w3.org/2000/svg" viewBox="0 0 599 599">
<path d="M0 0 C197.67 0 395.34 0 599 0 C599 197.67 599 395.34 599 599 C401.33 599 203.66 599 0 599 C0 401.33 0 203.66 0 0 Z " fill="#000111" transform="translate(0,0)"/>
<path d="M0 0 C0.33 0.66 0.66 1.32 1 2 C0.352078 3.6740428 -0.31841847 5.33937697 -1 7 C-1.43388632 9.09665067 -1.82485767 11.20235974 -2.1875 13.3125 C-3.44813241 20.09395078 -5.27490268 26.64479184 -7.25 33.25 C-10.86285793 45.34663968 -14.05213843 57.53001015 -17.17236328 69.76171875 C-18.43422165 74.69897225 -19.71461097 79.63132692 -21 84.5625 C-21.36714111 85.97160645 -21.36714111 85.97160645 -21.74169922 87.40917969 C-23.79550111 95.2670875 -25.91302915 103.10718443 -28.03637695 110.9465332 C-29.97296854 118.12152369 -31.87157454 125.30568233 -33.75 132.49609375 C-33.99140213 133.41997391 -34.23280426 134.34385406 -34.48152161 135.29573059 C-35.68782386 139.91497823 -36.89161231 144.53486707 -38.0925293 149.15551758 C-38.97623563 152.55462947 -39.87122608 155.95044988 -40.77514648 159.34423828 C-41.55977676 162.2927273 -42.30393548 165.24567854 -43.00805664 168.21435547 C-45.53933808 178.29109198 -45.53933808 178.29109198 -48.78515625 180.9140625 C-49.86667969 181.47867188 -50.94820313 182.04328125 -52.0625 182.625 C-53.30317953 183.31574307 -54.54269667 184.0085767 -55.78125 184.703125 C-56.4515625 185.06083984 -57.121875 185.41855469 -57.8125 185.78710938 C-62.01618598 188.11790312 -66.01904632 190.77955828 -70.0625 193.375 C-71.6562802 194.38482269 -73.2512687 195.39274173 -74.84765625 196.3984375 C-75.52836182 196.82817871 -76.20906738 197.25791992 -76.91040039 197.70068359 C-79 199 -79 199 -81.75268555 200.12597656 C-84.44007255 201.92323436 -84.44007255 201.92323436 -84.38964844 205.80615234 C-84.31722682 207.4005068 -84.22223722 208.99393462 -84.109375 210.5859375 C-84.04363777 212.33362566 -83.9835282 214.08153277 -83.9284668 215.82958984 C-83.89586761 216.7377948 -83.86326843 217.64599976 -83.8296814 218.58172607 C-83.18581717 241.15273055 -83.18581717 241.15273055 -88.33984375 247.1875 C-91.79742228 250.10127149 -95.63065993 252.11458648 -99.75048828 253.94335938 C-103.20838416 255.5676022 -106.09507912 257.82383867 -109.125 260.125 C-110.26392541 260.93652093 -111.40586104 261.7438339 -112.55078125 262.546875 C-116.17211094 265.11039251 -119.74284766 267.74022318 -123.3125 270.375 C-128.03272227 273.85772009 -132.79209452 277.27501833 -137.59863281 280.63769531 C-151.95496448 290.55146 -151.95496448 290.55146 -163.84375 303.19921875 C-166.89097222 307.15729544 -170.15148487 310.92338304 -173.40795898 314.7097168 C-175.97190964 317.66992864 -175.97190964 317.66992864 -178 321 C-181.22886009 321.11667875 -184.45717445 321.18740546 -187.6875 321.25 C-188.59951172 321.28351563 -189.51152344 321.31703125 -190.45117188 321.3515625 C-197.23852949 321.4502877 -197.23852949 321.4502877 -200.88671875 319.29296875 C-203.05817657 316.9368768 -205.13676005 314.57614937 -207.125 312.0625 C-207.90488281 311.09828125 -208.68476563 310.1340625 -209.48828125 309.140625 C-210.76515359 307.5506903 -212.03440381 305.9560027 -213.29052734 304.34960938 C-219.25129776 296.74425953 -224.90358317 291.23307595 -233.22607422 286.13427734 C-236.79992483 283.84909844 -240.19900565 281.3114304 -243.625 278.8125 C-245.18097219 277.68226773 -246.73696197 276.55205966 -248.29296875 275.421875 C-249.07333496 274.85404297 -249.85370117 274.28621094 -250.65771484 273.70117188 C-253.67076355 271.51283298 -256.69325289 269.33775962 -259.71582031 267.16259766 C-266.95550277 261.94843515 -274.17498572 256.70629098 -281.375 251.4375 C-282.57950806 250.56170288 -282.57950806 250.56170288 -283.80834961 249.66821289 C-284.55995361 249.11641357 -285.31155762 248.56461426 -286.0859375 247.99609375 C-286.7464209 247.51325928 -287.4069043 247.0304248 -288.08740234 246.53295898 C-288.71855957 246.02708252 -289.3497168 245.52120605 -290 245 C-290.74121094 244.45424316 -291.48242188 243.90848633 -292.24609375 243.34619141 C-294.84209581 239.87353275 -294.26641128 236.58959689 -293.9765625 232.46484375 C-293.90778169 230.75585348 -293.84541304 229.04659542 -293.78881836 227.3371582 C-293.75819305 226.45258942 -293.72756775 225.56802063 -293.6960144 224.65664673 C-292.96637169 211.56125893 -292.96637169 211.56125893 -296.50634766 199.28417969 C-300.43759744 195.42193429 -305.26328995 193.70214511 -310.41455078 191.97558594 C-314.95436493 190.26254559 -318.84873828 187.60770449 -322.875 184.9375 C-323.629021 184.48930908 -324.38304199 184.04111816 -325.15991211 183.5793457 C-332.37106131 178.99162654 -334.11691415 172.74561733 -336.125 164.76171875 C-336.42347969 163.40512693 -336.71506584 162.04700139 -337 160.6875 C-338.1094754 155.69595163 -339.29939367 150.80755594 -340.875 145.9375 C-342.85815264 139.73038841 -344.43725987 133.44787767 -346 127.125 C-346.26167969 126.06764648 -346.52335937 125.01029297 -346.79296875 123.92089844 C-347.3026127 121.85991368 -347.81205979 119.79888023 -348.32128906 117.73779297 C-350.91599912 107.27121794 -353.90219698 96.95241977 -357 86.625 C-359.45172013 78.44552067 -361.77404085 70.29102237 -363.62841797 61.95556641 C-364.95600467 56.01620695 -366.5690382 50.17217618 -368.25073242 44.32397461 C-369.2888732 40.68647445 -370.22914499 37.05768299 -371.02734375 33.359375 C-371.80866446 29.74849046 -372.79179144 26.26534674 -373.9375 22.75 C-375.72711859 17.08064856 -377.12942372 11.39087479 -378.38671875 5.58203125 C-378.88831469 3.03302433 -378.88831469 3.03302433 -380 1 C-371.08940481 5.24807445 -363.02004919 11.29446165 -355 17 C-346.29991309 23.1884615 -337.58482224 29.32693148 -328.671875 35.20581055 C-323.07437314 38.91356383 -317.60063028 42.78668413 -312.12939453 46.67749023 C-308.08891148 49.54485524 -304.01765504 52.34336132 -299.875 55.0625 C-294.80856162 58.40346208 -289.93818003 61.96068368 -285.06689453 65.57568359 C-279.87786165 69.40477768 -274.58361992 73.06319876 -269.25 76.6875 C-263.19138411 80.80519287 -257.17345479 84.94925062 -251.28515625 89.30859375 C-249.80669551 90.40290743 -248.31510508 91.4797927 -246.80859375 92.53515625 C-242.61247257 95.52101098 -239.29386918 98.70843539 -235.98828125 102.65234375 C-233.52160595 105.56486214 -230.95604487 108.37644394 -228.375 111.1875 C-227.91955811 111.68652832 -227.46411621 112.18555664 -226.99487305 112.69970703 C-224.86781046 115.01922732 -222.72585526 117.25625669 -220.42578125 119.40625 C-218.39974263 121.57257793 -217.39153641 123.00081635 -216.08203125 125.55078125 C-213.46747228 130.16039246 -210.81742905 133.5851138 -206 136 C-200.2578506 137.23228206 -194.67017136 137.46876299 -188.8125 137.5 C-188.05852936 137.51833893 -187.30455872 137.53667786 -186.52774048 137.55557251 C-177.28339526 137.70246945 -177.28339526 137.70246945 -169.1027832 133.84155273 C-166.83372903 131.33330719 -164.92271161 128.77831568 -163 126 C-161.5418694 124.33550111 -160.0649501 122.68710613 -158.5625 121.0625 C-157.45261719 119.82693359 -157.45261719 119.82693359 -156.3203125 118.56640625 C-154.71939875 116.79569862 -153.10943765 115.03314337 -151.4921875 113.27734375 C-150.64914062 112.36082031 -149.80609375 111.44429688 -148.9375 110.5 C-148.09445312 109.58347656 -147.25140625 108.66695313 -146.3828125 107.72265625 C-144.18794004 105.2147446 -142.26324074 102.63560246 -140.3125 99.9375 C-135.611749 93.98446146 -129.52401181 90.4084598 -123.20263672 86.421875 C-119.16029887 83.81241195 -115.24365201 81.02293096 -111.3125 78.25 C-109.60158013 77.04815199 -107.89064245 75.84632933 -106.1796875 74.64453125 C-104.45311946 73.42969537 -102.72655694 72.21485165 -101 71 C-97.64726065 68.64379437 -94.29302236 66.28974051 -90.9375 63.9375 C-90.1117749 63.35846924 -89.2860498 62.77943848 -88.43530273 62.18286133 C-82.77806149 58.22362319 -77.08458362 54.32074248 -71.375 50.4375 C-64.51564587 45.76843917 -57.76379612 40.97194929 -51.0546875 36.09008789 C-39.56594053 27.75152143 -27.86972018 19.69853396 -16.15625 11.6796875 C-15.42615723 11.17969238 -14.69606445 10.67969727 -13.94384766 10.16455078 C-12.6168116 9.25720515 -11.28847326 8.35175955 -9.95849609 7.44873047 C-6.51790343 5.09990973 -3.21726517 2.64665587 0 0 Z " fill="#00A1FD" transform="translate(487,65)"/>
<path d="M0 0 C0.33 0.66 0.66 1.32 1 2 C0.352078 3.6740428 -0.31841847 5.33937697 -1 7 C-1.43388632 9.09665067 -1.82485767 11.20235974 -2.1875 13.3125 C-3.44813241 20.09395078 -5.27490268 26.64479184 -7.25 33.25 C-10.86285793 45.34663968 -14.05213843 57.53001015 -17.17236328 69.76171875 C-18.43422165 74.69897225 -19.71461097 79.63132692 -21 84.5625 C-21.24476074 85.5019043 -21.48952148 86.44130859 -21.74169922 87.40917969 C-23.79550111 95.2670875 -25.91302915 103.10718443 -28.03637695 110.9465332 C-29.97296854 118.12152369 -31.87157454 125.30568233 -33.75 132.49609375 C-33.99140213 133.41997391 -34.23280426 134.34385406 -34.48152161 135.29573059 C-35.68782386 139.91497823 -36.89161231 144.53486707 -38.0925293 149.15551758 C-38.97623563 152.55462947 -39.87122608 155.95044988 -40.77514648 159.34423828 C-41.55977676 162.2927273 -42.30393548 165.24567854 -43.00805664 168.21435547 C-45.53933808 178.29109198 -45.53933808 178.29109198 -48.78515625 180.9140625 C-49.86667969 181.47867188 -50.94820313 182.04328125 -52.0625 182.625 C-53.30317953 183.31574307 -54.54269667 184.0085767 -55.78125 184.703125 C-56.4515625 185.06083984 -57.121875 185.41855469 -57.8125 185.78710938 C-62.01618598 188.11790312 -66.01904632 190.77955828 -70.0625 193.375 C-71.6562802 194.38482269 -73.2512687 195.39274173 -74.84765625 196.3984375 C-75.52836182 196.82817871 -76.20906738 197.25791992 -76.91040039 197.70068359 C-79 199 -79 199 -81.71826172 200.09741211 C-84.125 201.71984958 -84.125 201.71984958 -84.4695282 203.81072998 C-84.67847571 206.23334582 -84.7181577 208.61132025 -84.70703125 211.04296875 C-84.72971321 212.36836418 -84.72971321 212.36836418 -84.75285339 213.72053528 C-84.79584633 216.54311409 -84.80457934 219.36462592 -84.8125 222.1875 C-84.83563536 224.10094006 -84.86099869 226.01435457 -84.88867188 227.92773438 C-84.95163857 232.61858438 -84.98388326 237.30876449 -85 242 C-87.80442333 242.93480778 -89.96280045 243.23741538 -92.88671875 243.4609375 C-109.15034163 244.84405302 -124.86163703 247.18369857 -140.30444336 252.55737305 C-148.45650677 255.33505121 -156.43350987 256.44329176 -165 257 C-162.32239462 253.54325022 -158.7371175 252.79052087 -154.7265625 251.59375 C-135.21657725 245.65001677 -135.21657725 245.65001677 -121.87057495 231.22467041 C-119.02375384 225.37077381 -116.81043832 219.24797272 -115 213 C-123.77664046 215.79292203 -132.15084799 219.31843968 -140.59179688 222.984375 C-142.84062737 223.93278689 -145.10390574 224.80421214 -147.390625 225.65625 C-153.6253398 228.0780419 -158.36147461 230.1103205 -161.25 236.5625 C-162.26855001 239.68954216 -162.26855001 239.68954216 -163 243 C-163.28746094 244.18980469 -163.57492188 245.37960937 -163.87109375 246.60546875 C-164.39006329 248.92220839 -164.87809924 251.24626108 -165.32421875 253.578125 C-165.77891807 255.8805331 -166.30412229 258.1700076 -166.89453125 260.44140625 C-168.77511027 267.80973609 -170.0076848 275.34308635 -171.39550781 282.81762695 C-171.78004296 284.88319136 -172.17086574 286.94749031 -172.5625 289.01171875 C-172.79066406 290.23334717 -173.01882813 291.45497559 -173.25390625 292.71362305 C-174 296 -174 296 -176 301 C-184.91 301 -193.82 301 -203 301 C-203 299.35 -203 297.7 -203 296 C-202.67 297.32 -202.34 298.64 -202 300 C-197.71 300 -193.42 300 -189 300 C-189.19561716 277.81600223 -189.98018203 256.26539279 -193.49462891 234.32324219 C-194.3321471 228.815852 -194.94816762 223.28601947 -195.5625 217.75 C-195.80321184 215.6080534 -196.04409559 213.46612612 -196.28515625 211.32421875 C-196.40262207 210.27669434 -196.52008789 209.22916992 -196.64111328 208.14990234 C-197.23347652 202.9508068 -197.86838667 197.75694691 -198.5 192.5625 C-199.70817743 182.59819898 -200.8354433 172.62631371 -201.91015625 162.64672852 C-202.80821532 154.40537822 -203.90332452 146.22506608 -205 138 C-194.11 138 -183.22 138 -172 138 C-171.34 136.35 -170.68 134.7 -170 133 C-168.30078125 131.04296875 -168.30078125 131.04296875 -166.3125 129.1875 C-163.00912241 126.00844307 -159.96182954 122.73380837 -156.9765625 119.2578125 C-154.09189036 115.96267317 -151.09711235 112.76917228 -148.10913086 109.56787109 C-145.25112027 106.47278825 -142.71888797 103.2959428 -140.25 99.875 C-135.58122681 93.94490502 -129.49262016 90.38866261 -123.20263672 86.421875 C-119.16029887 83.81241195 -115.24365201 81.02293096 -111.3125 78.25 C-109.60158013 77.04815199 -107.89064245 75.84632933 -106.1796875 74.64453125 C-104.45311946 73.42969537 -102.72655694 72.21485165 -101 71 C-97.64726065 68.64379437 -94.29302236 66.28974051 -90.9375 63.9375 C-90.1117749 63.35846924 -89.2860498 62.77943848 -88.43530273 62.18286133 C-82.77806149 58.22362319 -77.08458362 54.32074248 -71.375 50.4375 C-64.51564587 45.76843917 -57.76379612 40.97194929 -51.0546875 36.09008789 C-39.56594053 27.75152143 -27.86972018 19.69853396 -16.15625 11.6796875 C-15.42615723 11.17969238 -14.69606445 10.67969727 -13.94384766 10.16455078 C-12.6168116 9.25720515 -11.28847326 8.35175955 -9.95849609 7.44873047 C-6.51790343 5.09990973 -3.21726517 2.64665587 0 0 Z " fill="#008EFB" transform="translate(487,65)"/>
... [remaining paths] ...
</svg>