<?xml version="1.0" encoding="UTF-8"?>
<svg version="1.1" xmlns="http://www.w3.org/2000/svg" width="599" height="599">
<path d="M0 0 C197.67 0 395.34 0 599 0 C599 197.67 599 395.34 599 599 C401.33 599 203.66 599 0 599 C0 401.33 0 203.66 0 0 Z " fill="#000111" transform="translate(0,0)"/>
<path d="M0 0 C0.33 0.66 0.66 1.32 1 2 C0.352078 3.6740428 -0.31841847 5.33937697 -1 7 C-1.43388632 9.09665067 -1.82485767 11.20235974 -2.1875 13.3125 C-3.44813241 20.09395078 -5.27490268 26.64479184 -7.25 33.25 C-10.86285793 45.34663968 -14.05213843 57.53001015 -17.17236328 69.76171875 C-18.43422165 74.69897225 -19.71461097 79.63132692 -21 84.5625 C-21.36714111 85.97160645 -21.36714111 85.97160645 -21.74169922 87.40917969 C-23.79550111 95.2670875 -25.91302915 103.10718443 -28.03637695 110.9465332 C-29.97296854 118.12152369 -31.87157454 125.30568233 -33.75 132.49609375 C-33.99140213 133.41997391 -34.23280426 134.34385406 -34.48152161 135.29573059 C-35.68782386 139.91497823 -36.89161231 144.53486707 -38.0925293 149.15551758 C-38.97623563 152.55462947 -39.87122608 155.95044988 -40.77514648 159.34423828 C-41.55977676 162.2927273 -42.30393548 165.24567854 -43.00805664 168.21435547 C-45.53933808 178.29109198 -45.53933808 178.29109198 -48.78515625 180.9140625 C-49.86667969 181.47867188 -50.94820313 182.04328125 -52.0625 182.625 C-53.30317953 183.31574307 -54.54269667 184.0085767 -55.78125 184.703125 C-56.4515625 185.06083984 -57.121875 185.41855469 -57.8125 185.78710938 C-62.01618598 188.11790312 -66.01904632 190.77955828 -70.0625 193.375 C-71.6562802 194.38482269 -73.2512687 195.39274173 -74.84765625 196.3984375 C-75.52836182 196.82817871 -76.20906738 197.25791992 -76.91040039 197.70068359 C-79 199 -79 199 -81.75268555 200.12597656 C-84.44007255 201.92323436 -84.44007255 201.92323436 -84.38964844 205.80615234 C-84.31722682 207.4005068 -84.22223722 208.99393462 -84.109375 210.5859375 C-84.04363777 212.33362566 -83.9835282 214.08153277 -83.9284668 215.82958984 C-83.89586761 216.7377948 -83.86326843 217.64599976 -83.8296814 218.58172607 C-83.18581717 241.15273055 -83.18581717 241.15273055 -88.33984375 247.1875 C-91.79742228 250.10127149 -95.63065993 252.11458648 -99.75048828 253.94335938 C-103.20838416 255.5676022 -106.09507912 257.82383867 -109.125 260.125 C-110.26392541 260.93652093 -111.40586104 261.7438339 -112.55078125 262.546875 C-116.17211094 265.11039251 -119.74284766 267.74022318 -123.3125 270.375 C-128.03272227 273.85772009 -132.79209452 277.27501833 -137.59863281 280.63769531 C-151.95496448 290.55146 -151.95496448 290.55146 -163.84375 303.19921875 C-166.89097222 307.15729544 -170.15148487 310.92338304 -173.40795898 314.7097168 C-175.97190964 317.66992864 -175.97190964 317.66992864 -178 321 C-181.22886009 321.11667875 -184.45717445 321.18740546 -187.6875 321.25 C-188.59951172 321.28351563 -189.51152344 321.31703125 -190.45117188 321.3515625 C-197.23852949 321.4502877 -197.23852949 321.4502877 -200.88671875 319.29296875 C-203.05817657 316.9368768 -205.13676005 314.57614937 -207.125 312.0625 C-207.90488281 311.09828125 -208.68476563 310.1340625 -209.48828125 309.140625 C-210.76515359 307.5506903 -212.03440381 305.9560027 -213.29052734 304.34960938 C-219.25129776 296.74425953 -224.90358317 291.23307595 -233.22607422 286.13427734 C-236.79992483 283.84909844 -240.19900565 281.3114304 -243.625 278.8125 C-245.18097219 277.68226773 -246.73696197 276.55205966 -248.29296875 275.421875 C-249.07333496 274.85404297 -249.85370117 274.28621094 -250.65771484 273.70117188 C-253.67076355 271.51283298 -256.69325289 269.33775962 -259.71582031 267.16259766 C-266.95550277 261.94843515 -274.17498572 256.70629098 -281.375 251.4375 C-282.57950806 250.56170288 -282.57950806 250.56170288 -283.80834961 249.66821289 C-284.55995361 249.11641357 -285.31155762 248.56461426 -286.0859375 247.99609375 C-286.7464209 247.51325928 -287.4069043 247.0304248 -288.08740234 246.53295898 C-288.71855957 246.02708252 -289.3497168 245.52120605 -290 245 C-290.74121094 244.45424316 -291.48242188 243.90848633 -292.24609375 243.34619141 C-294.84209581 239.87353275 -294.26641128 236.58959689 -293.9765625 232.46484375 C-293.90778169 230.75585348 -293.84541304 229.04659542 -293.78881836 227.3371582 C-293.75819305 226.45258942 -293.72756775 225.56802063 -293.6960144 224.65664673 C-292.96637169 211.56125893 -292.96637169 211.56125893 -296.50634766 199.28417969 C-300.43759744 195.42193429 -305.26328995 193.70214511 -310.41455078 191.97558594 C-314.95436493 190.26254559 -318.84873828 187.60770449 -322.875 184.9375 C-323.629021 184.48930908 -324.38304199 184.04111816 -325.15991211 183.5793457 C-332.37106131 178.99162654 -334.11691415 172.74561733 -336.125 164.76171875 C-336.42347969 163.40512693 -336.71506584 162.04700139 -337 160.6875 C-338.1094754 155.69595163 -339.29939367 150.80755594 -340.875 145.9375 C-342.85815264 139.73038841 -344.43725987 133.44787767 -346 127.125 C-346.26167969 126.06764648 -346.52335937 125.01029297 -346.79296875 123.92089844 C-347.3026127 121.85991368 -347.81205979 119.79888023 -348.32128906 117.73779297 C-350.91599912 107.27121794 -353.90219698 96.95241977 -357 86.625 C-359.45172013 78.44552067 -361.77404085 70.29102237 -363.62841797 61.95556641 C-364.95600467 56.01620695 -366.5690382 50.17217618 -368.25073242 44.32397461 C-369.2888732 40.68647445 -370.22914499 37.05768299 -371.02734375 33.359375 C-371.80866446 29.74849046 -372.79179144 26.26534674 -373.9375 22.75 C-375.72711859 17.08064856 -377.12942372 11.39087479 -378.38671875 5.58203125 C-378.88831469 3.03302433 -378.88831469 3.03302433 -380 1 C-371.08940481 5.24807445 -363.02004919 11.29446165 -355 17 C-346.29991309 23.1884615 -337.58482224 29.32693148 -328.671875 35.20581055 C-323.07437314 38.91356383 -317.60063028 42.78668413 -312.12939453 46.67749023 C-308.08891148 49.54485524 -304.01765504 52.34336132 -299.875 55.0625 C-294.80856162 58.40346208 -289.93818003 61.96068368 -285.06689453 65.57568359 C-279.87786165 69.40477768 -274.58361992 73.06319876 -269.25 76.6875 C-263.19138411 80.80519287 -257.17345479 84.94925062 -251.28515625 89.30859375 C-249.80669551 90.40290743 -248.31510508 91.4797927 -246.80859375 92.53515625 C-242.61247257 95.52101098 -239.29386918 98.70843539 -235.98828125 102.65234375 C-233.52160595 105.56486214 -230.95604487 108.37644394 -228.375 111.1875 C-227.91955811 111.68652832 -227.46411621 112.18555664 -226.99487305 112.69970703 C-224.86781046 115.01922732 -222.72585526 117.25625669 -220.42578125 119.40625 C-218.39974263 121.57257793 -217.39153641 123.00081635 -216.08203125 125.55078125 C-213.46747228 130.16039246 -210.81742905 133.5851138 -206 136 C-200.2578506 137.23228206 -194.67017136 137.46876299 -188.8125 137.5 C-188.05852936 137.51833893 -187.30455872 137.53667786 -186.52774048 137.55557251 C-177.28339526 137.70246945 -177.28339526 137.70246945 -169.1027832 133.84155273 C-166.83372903 131.33330719 -164.92271161 128.77831568 -163 126 C-161.5418694 124.33550111 -160.0649501 122.68710613 -158.5625 121.0625 C-157.45261719 119.82693359 -157.45261719 119.82693359 -156.3203125 118.56640625 C-154.71939875 116.79569862 -153.10943765 115.03314337 -151.4921875 113.27734375 C-150.64914062 112.36082031 -149.80609375 111.44429688 -148.9375 110.5 C-148.09445312 109.58347656 -147.25140625 108.66695313 -146.3828125 107.72265625 C-144.18794004 105.2147446 -142.26324074 102.63560246 -140.3125 99.9375 C-135.611749 93.98446146 -129.52401181 90.4084598 -123.20263672 86.421875 C-119.16029887 83.81241195 -115.24365201 81.02293096 -111.3125 78.25 C-109.60158013 77.04815199 -107.89064245 75.84632933 -106.1796875 74.64453125 C-104.45311946 73.42969537 -102.72655694 72.21485165 -101 71 C-97.64726065 68.64379437 -94.29302236 66.28974051 -90.9375 63.9375 C-90.1117749 63.35846924 -89.2860498 62.77943848 -88.43530273 62.18286133 C-82.77806149 58.22362319 -77.08458362 54.32074248 -71.375 50.4375 C-64.51564587 45.76843917 -57.76379612 40.97194929 -51.0546875 36.09008789 C-39.56594053 27.75152143 -27.86972018 19.69853396 -16.15625 11.6796875 C-15.42615723 11.17969238 -14.69606445 10.67969727 -13.94384766 10.16455078 C-12.6168116 9.25720515 -11.28847326 8.35175955 -9.95849609 7.44873047 C-6.51790343 5.09990973 -3.21726517 2.64665587 0 0 Z " fill="#00A1FD" transform="translate(487,65)"/>
<path d="M0 0 C0.33 0.66 0.66 1.32 1 2 C0.352078 3.6740428 -0.31841847 5.33937697 -1 7 C-1.43388632 9.09665067 -1.82485767 11.20235974 -2.1875 13.3125 C-3.44813241 20.09395078 -5.27490268 26.64479184 -7.25 33.25 C-10.86285793 45.34663968 -14.05213843 57.53001015 -17.17236328 69.76171875 C-18.43422165 74.69897225 -19.71461097 79.63132692 -21 84.5625 C-21.24476074 85.5019043 -21.48952148 86.44130859 -21.74169922 87.40917969 C-23.79550111 95.2670875 -25.91302915 103.10718443 -28.03637695 110.9465332 C-29.97296854 118.12152369 -31.87157454 125.30568233 -33.75 132.49609375 C-33.99140213 133.41997391 -34.23280426 134.34385406 -34.48152161 135.29573059 C-35.68782386 139.91497823 -36.89161231 144.53486707 -38.0925293 149.15551758 C-38.97623563 152.55462947 -39.87122608 155.95044988 -40.77514648 159.34423828 C-41.55977676 162.2927273 -42.30393548 165.24567854 -43.00805664 168.21435547 C-45.53933808 178.29109198 -45.53933808 178.29109198 -48.78515625 180.9140625 C-49.86667969 181.47867188 -50.94820312 182.04328125 -52.0625 182.625 C-53.30317953 183.31574307 -54.54269667 184.0085767 -55.78125 184.703125 C-56.4515625 185.06083984 -57.121875 185.41855469 -57.8125 185.78710938 C-62.01618598 188.11790312 -66.01904632 190.77955828 -70.0625 193.375 C-71.6562802 194.38482269 -73.2512687 195.39274173 -74.84765625 196.3984375 C-75.52836182 196.82817871 -76.20906738 197.25791992 -76.91040039 197.70068359 C-79 199 -79 199 -81.71533203 200.09741211 C-84.11519753 201.71984958 -84.11519753 201.71984958 -84.4695282 203.81072998 C-84.67847571 206.23334582 -84.7181577 208.61132025 -84.70703125 211.04296875 C-84.72971321 212.36836418 -84.72971321 212.36836418 -84.75285339 213.72053528 C-84.79584633 216.54311409 -84.80457934 219.36462592 -84.8125 222.1875 C-84.83563536 224.10094006 -84.86099869 226.01435457 -84.88867188 227.92773438 C-84.95163857 232.61858438 -84.98388326 237.30876449 -85 242 C-87.80442333 242.93480778 -89.96280045 243.23741538 -92.88671875 243.4609375 C-109.15034163 244.84405302 -124.86163703 247.18369857 -140.30444336 252.55737305 C-148.45650677 255.33505121 -156.43350987 256.44329176 -165 257 C-162.32239462 253.54325022 -158.7371175 252.79052087 -154.7265625 251.59375 C-135.21657725 245.65001677 -135.21657725 245.65001677 -121.87057495 231.22467041 C-119.02375384 225.37077381 -116.81043832 219.24797272 -115 213 C-123.77664046 215.79292203 -132.15084799 219.31843968 -140.59179688 222.984375 C-142.84062737 223.93278689 -145.10390574 224.80421214 -147.390625 225.65625 C-153.6253398 228.0780419 -158.36147461 230.1103205 -161.25 236.5625 C-162.26855001 239.68954216 -162.26855001 239.68954216 -163 243 C-163.28746094 244.18980469 -163.57492187 245.37960937 -163.87109375 246.60546875 C-164.39006329 248.92220839 -164.87809924 251.24626108 -165.32421875 253.578125 C-165.77891807 255.8805331 -166.30412229 258.1700076 -166.89453125 260.44140625 C-168.77511027 267.80973609 -170.0076848 275.34308635 -171.39550781 282.81762695 C-171.78004296 284.88319136 -172.17086574 286.94749031 -172.5625 289.01171875 C-172.79066406 290.23334717 -173.01882813 291.45497559 -173.25390625 292.71362305 C-174 296 -174 296 -176 301 C-184.91 301 -193.82 301 -203 301 C-203 299.35 -203 297.7 -203 296 C-202.67 297.32 -202.34 298.64 -202 300 C-197.71 300 -193.42 300 -189 300 C-189.19561716 277.81600223 -189.98018203 256.26539279 -193.49462891 234.32324219 C-194.3321471 228.815852 -194.94816762 223.28601947 -195.5625 217.75 C-195.80321184 215.6080534 -196.04409559 213.46612612 -196.28515625 211.32421875 C-196.40262207 210.27669434 -196.52008789 209.22916992 -196.64111328 208.14990234 C-197.23347652 202.9508068 -197.86838667 197.75694691 -198.5 192.5625 C-199.70817743 182.59819898 -200.8354433 172.62631371 -201.91015625 162.64672852 C-202.80821532 154.40537822 -203.90332452 146.22506608 -205 138 C-194.11 138 -183.22 138 -172 138 C-171.34 136.35 -170.68 134.7 -170 133 C-168.30078125 131.04296875 -168.30078125 131.04296875 -166.3125 129.1875 C-163.00912241 126.00844307 -159.96182954 122.73380837 -156.9765625 119.2578125 C-154.09189036 115.96267317 -151.09711235 112.76917228 -148.10913086 109.56787109 C-145.25112027 106.47278825 -142.71888797 103.2959428 -140.25 99.875 C-135.58122681 93.94490502 -129.49262016 90.38866261 -123.20263672 86.421875 C-119.16029887 83.81241195 -115.24365201 81.02293096 -111.3125 78.25 C-109.60158013 77.04815199 -107.89064245 75.84632933 -106.1796875 74.64453125 C-104.45311946 73.42969537 -102.72655694 72.21485165 -101 71 C-97.64726065 68.64379437 -94.29302236 66.28974051 -90.9375 63.9375 C-90.1117749 63.35846924 -89.2860498 62.77943848 -88.43530273 62.18286133 C-82.77806149 58.22362319 -77.08458362 54.32074248 -71.375 50.4375 C-64.51564587 45.76843917 -57.76379612 40.97194929 -51.0546875 36.09008789 C-39.56594053 27.75152143 -27.86972018 19.69853396 -16.15625 11.6796875 C-15.42615723 11.17969238 -14.69606445 10.67969727 -13.94384766 10.16455078 C-12.6168116 9.25720515 -11.28847326 8.35175955 -9.95849609 7.44873047 C-6.51790343 5.09990973 -3.21726517 2.64665587 0 0 Z " fill="#008EFB" transform="translate(487,65)"/>
<path d="M0 0 C0 3 0 3 -1.4609375 4.6484375 C-2.73151711 5.79455217 -4.00234832 6.94038799 -5.2734375 8.0859375 C-7.23126482 10.25637956 -8.06462766 12.25057221 -9 15 C-1.37775197 19.96303931 6.29594947 24.8279659 14.0625 29.5625 C14.82393311 30.02793213 15.58536621 30.49336426 16.36987305 30.97290039 C19.82885372 33.08357166 23.29412612 35.17982088 26.7890625 37.23046875 C32.273639 40.4896941 37.07814893 43.594158 41.41015625 48.296875 C43.09717296 50.10409683 44.87698558 51.69952179 46.75 53.3125 C49.99515307 56.10745842 53.16112492 58.97465906 56.3125 61.875 C58.20425883 63.58784422 60.10018518 65.29609553 62 67 C62.98097656 67.88300781 63.96195312 68.76601563 64.97265625 69.67578125 C65.93042969 70.50464844 66.88820313 71.33351563 67.875 72.1875 C68.73867188 72.94417969 69.60234375 73.70085937 70.4921875 74.48046875 C72.84278569 76.19011291 72.84278569 76.19011291 75.32421875 76.05078125 C79.20559588 74.52656162 82.48940998 72.32480435 85.9375 70 C87.44989845 68.99255463 88.96292958 67.98605845 90.4765625 66.98046875 C91.61013184 66.22515869 91.61013184 66.22515869 92.76660156 65.45458984 C94.84612822 64.10021513 96.9498511 62.81348985 99.0859375 61.55078125 C105.68853653 57.61222563 110.49500716 54.65414479 113 47 C113.66 47 114.32 47 115 47 C115.33 45.02 115.66 43.04 116 41 C116.33 41 116.66 41 117 41 C116.96667299 42.72997483 116.89697108 44.45926731 116.8125 46.1875 C116.77769531 47.15042969 116.74289062 48.11335938 116.70703125 49.10546875 C115.28326472 54.9342588 110.69005256 57.29066499 105.8671875 60.3046875 C103.87415875 61.50209071 101.87660995 62.69199719 99.875 63.875 C96.89598989 65.65380525 93.92278469 67.43399298 90.97875977 69.27026367 C88 71 88 71 84.84741211 72.28637695 C81.39967778 73.86606512 79.40824309 75.04706178 77 78 C75.06032306 84.5631102 75.64561061 91.67467351 75.8125 98.4375 C75.81946337 100.33267051 75.82146757 102.22786613 75.81835938 104.12304688 C75.82153759 108.75096063 75.89246326 113.37338243 76 118 C73.19557667 118.93480778 71.03719955 119.23741538 68.11328125 119.4609375 C51.84965837 120.84405302 36.13836297 123.18369857 20.69555664 128.55737305 C12.54349323 131.33505121 4.56649013 132.44329176 -4 133 C-1.32239462 129.54325022 2.2628825 128.79052087 6.2734375 127.59375 C25.78342275 121.65001677 25.78342275 121.65001677 39.12942505 107.22467041 C41.97624616 101.37077381 44.18956168 95.24797272 46 89 C37.22335954 91.79292203 28.84915201 95.31843968 20.40820312 98.984375 C18.15937263 99.93278689 15.89609426 100.80421214 13.609375 101.65625 C7.3746602 104.0780419 2.63852539 106.1103205 -0.25 112.5625 C-1.26855001 115.68954216 -1.26855001 115.68954216 -2 119 C-2.43119141 120.78470703 -2.43119141 120.78470703 -2.87109375 122.60546875 C-3.39006329 124.92220839 -3.87809924 127.24626108 -4.32421875 129.578125 C-4.77891807 131.8805331 -5.30412229 134.1700076 -5.89453125 136.44140625 C-7.77511027 143.80973609 -9.0076848 151.34308635 -10.39550781 158.81762695 C-10.78004296 160.88319136 -11.17086574 162.94749031 -11.5625 165.01171875 C-11.79066406 166.23334717 -12.01882813 167.45497559 -12.25390625 168.71362305 C-13 172 -13 172 -15 177 C-23.91 177 -32.82 177 -42 177 C-42 175.35 -42 173.7 -42 172 C-41.67 173.32 -41.34 174.64 -41 176 C-36.71 176 -32.42 176 -28 176 C-28.19561716 153.81600223 -28.98018203 132.26539279 -32.49462891 110.32324219 C-33.3321471 104.815852 -33.94816762 99.28601947 -34.5625 93.75 C-34.80321184 91.6080534 -35.04409559 89.46612612 -35.28515625 87.32421875 C-35.40262207 86.27669434 -35.52008789 85.22916992 -35.64111328 84.14990234 C-36.23347652 78.9508068 -36.86838667 73.75694691 -37.5 68.5625 C-38.70817743 58.59819898 -39.8354433 48.62631371 -40.91015625 38.64672852 C-41.80821532 30.40537822 -42.90332452 22.22506608 -44 14 C-33.11 14 -22.22 14 -11 14 C-10.34 12.35 -9.68 10.7 -9 9 C-6.8359375 6.54296875 -6.8359375 6.54296875 -4.375 4.1875 C-3.55773437 3.39730469 -2.74046875 2.60710937 -1.8984375 1.79296875 C-1.27195312 1.20128906 -0.64546875 0.60960937 0 0 Z " fill="#00C9FE" transform="translate(326,189)"/>
<path d="M0 0 C5.25467291 3.86373008 9.29649149 8.39632173 12.85546875 13.8359375 C15.11661275 17.1720516 17.61608356 20.2099426 20.25 23.25 C26.51642136 30.57146608 32.5732941 38.02664759 38.32421875 45.76171875 C45.71628884 55.63504314 53.36552087 65.31398834 61 75 C70.58486426 87.16050309 80.06258975 99.38823468 89.33666992 111.7878418 C92.94660915 116.60928509 96.58769334 121.40573308 100.25 126.1875 C100.77489014 126.87328125 101.29978027 127.5590625 101.84057617 128.265625 C104.25344486 131.41700939 106.66774017 134.5672841 109.08496094 137.71533203 C111.26731737 140.55843316 113.44632013 143.40408096 115.625 146.25 C116.65608887 147.59034302 116.65608887 147.59034302 117.70800781 148.95776367 C118.35350586 149.80185791 118.99900391 150.64595215 119.6640625 151.515625 C120.52185303 152.63372559 120.52185303 152.63372559 121.39697266 153.77441406 C123.08781104 156.12191371 124.62971542 158.45075059 126 161 C125.03707293 164.93577335 121.81823962 167.2094956 118.875 169.8125 C118.3807251 170.25263428 117.8864502 170.69276855 117.37719727 171.14624023 C115.92395396 172.43741004 114.46212671 173.7188985 113 175 C112.28972656 175.62390625 111.57945312 176.2478125 110.84765625 176.890625 C109.57679655 178.0029521 108.30336261 179.11234509 107.02734375 180.21875 C104.65592828 182.30230579 102.33093751 184.43378995 100 186.5625 C88.41866438 197 88.41866438 197 85 197 C85 210.2 85 223.4 85 237 C84.67 237 84.34 237 84 237 C84.06396973 235.8761792 84.12793945 234.7523584 84.19384766 233.59448242 C86.03628596 213.87654896 86.03628596 213.87654896 81.47607422 195.26660156 C77.55216683 191.41163983 72.72714121 189.6989379 67.58544922 187.97558594 C63.04563507 186.26254559 59.15126172 183.60770449 55.125 180.9375 C54.370979 180.48930908 53.61695801 180.04111816 52.84008789 179.5793457 C45.62893869 174.99162654 43.88308585 168.74561733 41.875 160.76171875 C41.57652031 159.40512693 41.28493416 158.04700139 41 156.6875 C39.8905246 151.69595163 38.70060633 146.80755594 37.125 141.9375 C35.14184736 135.73038841 33.56274013 129.44787767 32 123.125 C31.73832031 122.06764648 31.47664063 121.01029297 31.20703125 119.92089844 C30.6973873 117.85991368 30.18794021 115.79888023 29.67871094 113.73779297 C27.08400088 103.27121794 24.09780302 92.95241977 21 82.625 C18.54827987 74.44552067 16.22595915 66.29102237 14.37158203 57.95556641 C13.04399533 52.01620695 11.4309618 46.17217618 9.74926758 40.32397461 C8.71297147 36.69293791 7.7735463 33.07058802 6.9765625 29.37890625 C6.17203557 25.66107741 5.16144656 22.06248359 4 18.4375 C0 5.6613806 0 5.6613806 0 0 Z " fill="#006EEF" transform="translate(109,69)"/>
<path d="M0 0 C-1.6271379 3.7729788 -3.29642777 7.52409963 -5.00488281 11.26098633 C-5.578593 12.53122962 -6.14107317 13.80661344 -6.69140625 15.0871582 C-11.8544335 27.06407197 -11.8544335 27.06407197 -17.5625 30 C-19.36105559 30.70341915 -21.17544108 31.36708182 -23 32 C-25.29671393 32.95901367 -27.59083836 33.92424435 -29.8828125 34.89453125 C-32.29521686 35.8712928 -34.70930884 36.84389578 -37.125 37.8125 C-38.3803603 38.31928519 -39.63556966 38.82644443 -40.890625 39.33398438 C-43.92562689 40.55965821 -46.96208353 41.78157234 -50 43 C-40.78633994 42.2493782 -32.72660019 40.74448594 -24 37.6875 C-14.45970396 34.39589958 -4.94601502 32.56680103 5 31.0625 C6.0533252 30.90145279 6.0533252 30.90145279 7.12792969 30.7371521 C13.43183602 29.78523047 19.60438835 28.86837559 26 29 C24.61839226 32.2574919 23.18026874 33.90773314 20.31640625 35.9609375 C19.56359375 36.50758057 18.81078125 37.05422363 18.03515625 37.61743164 C17.21917969 38.1974292 16.40320313 38.77742676 15.5625 39.375 C13.8239736 40.6311712 12.08569923 41.88769127 10.34765625 43.14453125 C9.4570752 43.78471191 8.56649414 44.42489258 7.64892578 45.08447266 C5.14531677 46.89491656 2.66071242 48.72775088 0.18359375 50.57421875 C-7.76562852 56.4983194 -15.78380951 62.26346015 -24 67.8125 C-33.71645173 74.40808838 -42.71851546 80.76658177 -49.87890625 90.234375 C-52.90900407 94.18522077 -56.16227682 97.93597889 -59.40820312 101.70996094 C-61.97200693 104.67007 -61.97200693 104.67007 -64 108 C-67.22886009 108.11667875 -70.45717445 108.18740546 -73.6875 108.25 C-74.59951172 108.28351563 -75.51152344 108.31703125 -76.45117188 108.3515625 C-83.23852949 108.4502877 -83.23852949 108.4502877 -86.88671875 106.29296875 C-89.05817657 103.9368768 -91.13676005 101.57614937 -93.125 99.0625 C-93.90488281 98.09828125 -94.68476563 97.1340625 -95.48828125 96.140625 C-96.76515359 94.5506903 -98.03440381 92.9560027 -99.29052734 91.34960938 C-105.25129776 83.74425953 -110.90358317 78.23307595 -119.22607422 73.13427734 C-122.79992483 70.84909844 -126.19900565 68.3114304 -129.625 65.8125 C-131.18097219 64.68226773 -132.73696197 63.55205966 -134.29296875 62.421875 C-135.07333496 61.85404297 -135.85370117 61.28621094 -136.65771484 60.70117188 C-139.67090912 58.51272725 -142.69352611 56.33752474 -145.71630859 54.16235352 C-148.69214789 52.01895113 -151.66301847 49.8687507 -154.63232422 47.71630859 C-156.28944828 46.51507307 -157.94739476 45.31497164 -159.60595703 44.11572266 C-162.2412803 42.20755073 -164.87123673 40.29219584 -167.5 38.375 C-168.31976318 37.78275635 -169.13952637 37.1905127 -169.98413086 36.58032227 C-170.74218018 36.02530029 -171.50022949 35.47027832 -172.28125 34.8984375 C-172.95220703 34.41036621 -173.62316406 33.92229492 -174.31445312 33.41943359 C-176 32 -176 32 -178 29 C-156.35548576 29.57412505 -135.33815334 33.97313561 -114.8984375 41.078125 C-111.35570393 42.20492436 -107.77122149 42.93250057 -104.125 43.625 C-103.43664062 43.7590625 -102.74828125 43.893125 -102.0390625 44.03125 C-100.36006245 44.35772223 -98.68012464 44.67936553 -97 45 C-96.67057292 46.64713542 -96.34114583 48.29427083 -96.01171875 49.94140625 C-95.80119873 50.99376465 -95.59067871 52.04612305 -95.3737793 53.13037109 C-94.91523332 55.42359033 -94.45706442 57.716885 -93.99926758 60.01025391 C-93.00810468 64.97346775 -92.01639782 69.93641565 -91 74.89453125 C-90.85989502 75.581521 -90.71979004 76.26851074 -90.57543945 76.97631836 C-90.21245716 78.75285285 -89.84656998 80.52879312 -89.48046875 82.3046875 C-89 85 -89 85 -89 88 C-80.09 87.67 -71.18 87.34 -62 87 C-61.17985784 83.0901399 -60.36128723 79.17999489 -59.54638672 75.26904297 C-59.13545759 73.30010676 -58.72205781 71.3316867 -58.30859375 69.36328125 C-57.07104575 63.41701403 -55.88578643 57.48291349 -54.9296875 51.484375 C-54.24088603 47.20376087 -53.27906097 43.14939463 -52 39 C-51.53980469 37.15921875 -51.53980469 37.15921875 -51.0703125 35.28125 C-50.60238281 33.40953125 -50.60238281 33.40953125 -50.125 31.5 C-49.81820312 30.2521875 -49.51140625 29.004375 -49.1953125 27.71875 C-46.19105518 18.37217168 -46.19105518 18.37217168 -41.48242188 15.42333984 C-38.25989077 13.80740546 -35.00305279 12.35266077 -31.6875 10.9375 C-29.93747681 10.16369995 -29.93747681 10.16369995 -28.15209961 9.37426758 C-24.7779468 7.89188744 -21.3917503 6.44157188 -18 5 C-17.12956055 4.62294922 -16.25912109 4.24589844 -15.36230469 3.85742188 C-3.63889528 -1.21296509 -3.63889528 -1.21296509 0 0 Z " fill="#008EF8" transform="translate(373,278)"/>
<path d="M0 0 C8.91059519 4.24807445 16.97995081 10.29446165 25 16 C33.70008691 22.1884615 42.41517776 28.32693148 51.328125 34.20581055 C56.92562686 37.91356383 62.39936972 41.78668413 67.87060547 45.67749023 C71.91108852 48.54485524 75.98234496 51.34336132 80.125 54.0625 C85.19143838 57.40346208 90.06181997 60.96068368 94.93310547 64.57568359 C100.12213835 68.40477768 105.41638008 72.06319876 110.75 75.6875 C120.35522412 82.21561856 129.73716707 88.9931579 139 96 C138.67 96.99 138.34 97.98 138 99 C136.6096819 104.2609637 135.46835933 109.49712753 134.625 114.875 C134.5019751 115.64585937 134.3789502 116.41671875 134.25219727 117.2109375 C133.36292747 123.02484658 132.65141421 128.85225722 131.98828125 134.6953125 C131.90128967 135.45786346 131.8142981 136.22041443 131.72467041 137.006073 C131.28555996 140.87240553 130.85797819 144.73959069 130.44580078 148.60888672 C130.2856842 150.05178029 130.12537361 151.49465235 129.96484375 152.9375 C129.8268335 154.22527344 129.68882324 155.51304687 129.54663086 156.83984375 C129 160 129 160 127 163 C119.66678072 153.63231934 112.38143626 144.23564608 105.26733398 134.70019531 C101.74640398 129.98362229 98.17570866 125.30862717 94.57714844 120.65112305 C91.85445317 117.12289988 89.16796851 113.56975121 86.5 110 C75.8222957 95.72579146 64.9246139 81.57659501 53.75 67.6875 C50.81039458 64.03336362 47.92323064 60.34107336 45.0625 56.625 C44.63718994 56.07271729 44.21187988 55.52043457 43.77368164 54.95141602 C41.03062257 51.37639847 38.35361711 47.75795078 35.6875 44.125 C31.61207798 38.65249725 27.18118992 33.55733108 22.67016602 28.44165039 C18.97487864 24.21854271 15.67502296 19.87791891 12.55078125 15.2109375 C10.43666918 12.19686337 8.03932878 9.49454186 5.578125 6.76171875 C3.62432943 4.58062518 1.80236493 2.30702712 0 0 Z " fill="#00CEFE" transform="translate(107,66)"/>
<path d="M0 0 C0.33 0.66 0.66 1.32 1 2 C0.26265625 2.72058594 -0.4746875 3.44117187 -1.234375 4.18359375 C-7.98086185 11.05395678 -13.68927476 18.85335064 -19.421875 26.5703125 C-23.12821215 31.53087414 -26.95602797 36.39806069 -30.76513672 41.27978516 C-34.30352477 45.81546841 -37.81943241 50.36686515 -41.3125 54.9375 C-44.3121871 58.84736948 -47.36516016 62.69770735 -50.5 66.5 C-57.79977462 75.35483224 -64.66639352 84.53888923 -71.5390625 93.7265625 C-78.32570736 102.77355734 -85.22236051 111.73803879 -92.19238281 120.64428711 C-98.30371393 128.45615511 -104.2754921 136.35401639 -110.11889648 144.36865234 C-113.52560279 149.0353033 -117.01609961 153.61923011 -120.60180664 158.15014648 C-122.05188221 159.95163839 -122.05188221 159.95163839 -123 162 C-123.66 162 -124.32 162 -125 162 C-128.44624359 139.03732884 -131.86790091 116.12700421 -134 93 C-133.14921875 92.44054687 -132.2984375 91.88109375 -131.421875 91.3046875 C-120.47177058 84.07130861 -109.73218857 76.55145494 -99 69 C-95.64726065 66.64379437 -92.29302236 64.28974051 -88.9375 61.9375 C-88.1117749 61.35846924 -87.2860498 60.77943848 -86.43530273 60.18286133 C-80.77806149 56.22362319 -75.08458362 52.32074248 -69.375 48.4375 C-62.51564587 43.76843917 -55.76379612 38.97194929 -49.0546875 34.09008789 C-32.95195654 22.40267824 -16.55635317 11.03756878 0 0 Z " fill="#00D9FE" transform="translate(485,67)"/>
<path d="M0 0 C0.89813416 -0.00960754 1.79626831 -0.01921509 2.72161865 -0.02911377 C3.69036926 -0.03336365 4.65911987 -0.03761353 5.65722656 -0.04199219 C7.15748383 -0.0505423 7.15748383 -0.0505423 8.68804932 -0.05926514 C10.80634504 -0.06871463 12.92465546 -0.07524892 15.04296875 -0.07910156 C18.27142279 -0.08878789 21.49923496 -0.11980418 24.72753906 -0.15136719 C26.78743112 -0.1578994 28.84732773 -0.16314902 30.90722656 -0.16699219 C31.86788025 -0.17933899 32.82853394 -0.19168579 33.81829834 -0.20440674 C40.26055097 -0.18317809 45.4388632 0.44313284 50.47363281 4.84472656 C50.93125 5.42351562 51.38886719 6.00230469 51.86035156 6.59863281 C52.33085937 7.17484375 52.80136719 7.75105469 53.28613281 8.34472656 C57.2834023 14.09930957 57.09483298 19.29739827 56.54785156 26.16113281 C55.49929219 31.89961229 52.99055705 35.23691704 48.55957031 38.93457031 C42.45547315 42.65629169 36.37389844 42.42646621 29.46191406 42.35644531 C27.87653336 42.35220047 27.87653336 42.35220047 26.25912476 42.34786987 C22.89691656 42.33671131 19.5349787 42.3116144 16.17285156 42.28613281 C13.88769917 42.27609744 11.60254259 42.26697256 9.31738281 42.25878906 C3.72744746 42.23678613 -1.86233117 42.20335154 -7.45214844 42.16113281 C-7.16914596 43.61076784 -6.87541079 45.05831042 -6.57714844 46.50488281 C-6.41472656 47.31119141 -6.25230469 48.1175 -6.08496094 48.94824219 C-5.24327383 51.89154928 -3.8776832 53.34198174 -1.45214844 55.16113281 C1.07972034 56.4270672 2.89759947 56.32031476 5.73193359 56.36645508 C6.81290314 56.3864003 7.89387268 56.40634552 9.00759888 56.42689514 C10.17846039 56.44360764 11.3493219 56.46032013 12.55566406 56.47753906 C13.75142059 56.49832016 14.94717712 56.51910126 16.1791687 56.54051208 C20.0103362 56.6060557 23.84157394 56.664915 27.67285156 56.72363281 C30.26530683 56.76681345 32.85775492 56.81042758 35.45019531 56.85449219 C41.8160082 56.96174204 48.18189193 57.06299593 54.54785156 57.16113281 C54.54785156 60.79113281 54.54785156 64.42113281 54.54785156 68.16113281 C46.86309533 68.27445159 39.17865386 68.36603068 31.49326324 68.42019367 C27.92390199 68.44620008 24.35514587 68.48143009 20.78613281 68.53833008 C17.3366254 68.59297566 13.88769704 68.62262059 10.43778992 68.63551903 C8.49238973 68.64914587 6.54721997 68.68812729 4.60217285 68.72761536 C-2.74955894 68.7299278 -7.81707018 68.09977373 -13.45214844 63.16113281 C-19.11049959 57.50278166 -19.76610582 50.62307321 -19.82324219 42.91894531 C-19.83227066 42.15113739 -19.84129913 41.38332947 -19.8506012 40.59225464 C-19.86502707 38.97706963 -19.87397123 37.36182719 -19.87768555 35.74658203 C-19.88958533 33.29911248 -19.93884349 30.85416583 -19.98925781 28.40722656 C-20.15394177 12.62776531 -20.15394177 12.62776531 -14.45214844 6.16113281 C-10.05034193 2.18973325 -5.95146895 0.05147725 0 0 Z " fill="#F9F9F9" transform="translate(422.4521484375,438.8388671875)"/>
<path d="M0 0 C0.87488571 -0.01283524 1.74977142 -0.02567047 2.65116882 -0.03889465 C3.5949086 -0.04628159 4.53864838 -0.05366852 5.51098633 -0.0612793 C6.48659012 -0.06935104 7.46219391 -0.07742279 8.46736145 -0.08573914 C10.53437527 -0.09957335 12.60141188 -0.11029847 14.66845703 -0.11816406 C17.81367965 -0.13533785 20.95784031 -0.17922575 24.1027832 -0.22338867 C26.1138432 -0.23351948 28.12491212 -0.24203437 30.13598633 -0.2487793 C31.06960495 -0.26628738 32.00322357 -0.28379547 32.96513367 -0.30183411 C40.01780721 -0.27866771 45.36509258 1.27368577 50.71411133 5.9934082 C51.16915039 6.56961914 51.62418945 7.14583008 52.09301758 7.73950195 C52.56610352 8.31829102 53.03918945 8.89708008 53.52661133 9.4934082 C56.9471133 14.59457204 56.14746668 21.32211472 55.65551758 27.17700195 C53.99484603 33.14592998 50.66036818 36.70424847 45.65551758 40.17700195 C42.19408906 41.80353678 39.49558892 42.42417911 35.68164062 42.40405273 C34.24071297 42.40382614 34.24071297 42.40382614 32.77067566 42.40359497 C31.74654068 42.3932724 30.7224057 42.38294983 29.66723633 42.37231445 C28.60890091 42.36948456 27.55056549 42.36665466 26.4601593 42.36373901 C23.0876626 42.35256485 19.71543371 42.32746503 16.34301758 42.30200195 C14.05330788 42.29196859 11.76359401 42.28284336 9.47387695 42.2746582 C3.86766614 42.25263455 -1.738389 42.21918432 -7.34448242 42.17700195 C-6.50366689 48.86467987 -6.50366689 48.86467987 -3.48828125 54.76391602 C1.54289155 57.02534555 6.50181511 56.78057661 11.95629883 56.78637695 C13.74356636 56.81118134 13.74356636 56.81118134 15.56694031 56.83648682 C19.36735158 56.88501735 23.16736251 56.90635013 26.96801758 56.92700195 C29.54681382 56.95515722 32.12559136 56.98508402 34.7043457 57.0168457 C41.02137006 57.09077845 47.3381715 57.14032283 53.65551758 57.17700195 C53.65551758 60.80700195 53.65551758 64.43700195 53.65551758 68.17700195 C46.10114699 68.29033146 38.54709679 68.38190585 30.99208069 68.43606281 C27.48324799 68.46206666 23.9750311 68.49729167 20.46655273 68.55419922 C16.42531704 68.61933175 12.38471986 68.64325813 8.34301758 68.6652832 C7.09375488 68.69108963 5.84449219 68.71689606 4.55737305 68.7434845 C-3.73919808 68.74613839 -8.91866604 67.50591634 -14.89233398 61.66304016 C-19.63180481 56.38166722 -19.51864752 51.57267991 -19.58276367 44.75512695 C-19.59083542 43.93631042 -19.59890717 43.1174939 -19.60722351 42.27386475 C-19.62103296 40.54237973 -19.63176911 38.81086786 -19.63964844 37.0793457 C-19.65115816 35.3181962 -19.67159412 33.55708131 -19.70117188 31.79614258 C-19.74406839 29.2405649 -19.76004773 26.68602099 -19.77026367 24.13012695 C-19.78777176 23.35276184 -19.80527985 22.57539673 -19.82331848 21.7744751 C-19.79771819 15.23542817 -17.96654608 9.82926212 -13.30932617 5.1184082 C-12.64030273 4.66336914 -11.9712793 4.20833008 -11.28198242 3.73950195 C-10.61038086 3.26641602 -9.9387793 2.79333008 -9.24682617 2.3059082 C-6.13699583 0.4604442 -3.53807869 0.04531392 0 0 Z " fill="#F8F8F8" transform="translate(139.344482421875,438.822998046875)"/>
<path d="M0 0 C21.64451424 0.57412505 42.66184666 4.97313561 63.1015625 12.078125 C66.64429607 13.20492436 70.22877851 13.93250057 73.875 14.625 C74.90753906 14.82609375 74.90753906 14.82609375 75.9609375 15.03125 C77.63993755 15.35772223 79.31987536 15.67936553 81 16 C81.32942708 17.64713542 81.65885417 19.29427083 81.98828125 20.94140625 C82.19880127 21.99376465 82.40932129 23.04612305 82.6262207 24.13037109 C83.08476668 26.42359033 83.54293558 28.716885 84.00073242 31.01025391 C84.99189532 35.97346775 85.98360218 40.93641565 87 45.89453125 C87.21015747 46.92501587 87.21015747 46.92501587 87.42456055 47.97631836 C87.78754284 49.75285285 88.15343002 51.52879312 88.51953125 53.3046875 C89 56 89 56 89 59 C97.58 59 106.16 59 115 59 C114.67 62.96 114.34 66.92 114 71 C114.99 69.02 114.99 69.02 116 67 C116 67.66 116 68.32 116 69 C116.66 69 117.32 69 118 69 C116.99806563 72.79303725 116.18975773 75.71536341 114 79 C110.77270629 79.6573749 107.47372389 79.4629746 104.1875 79.4375 C103.28451172 79.45748047 102.38152344 79.47746094 101.45117188 79.49804688 C97.31548764 79.49500817 94.72304312 79.43166753 91.12109375 77.28125 C88.93868246 74.93405259 86.86379547 72.57685168 84.875 70.0625 C84.09511719 69.09828125 83.31523437 68.1340625 82.51171875 67.140625 C81.23484641 65.5506903 79.96559619 63.9560027 78.70947266 62.34960938 C72.74870224 54.74425953 67.09641683 49.23307595 58.77392578 44.13427734 C55.20007517 41.84909844 51.80099435 39.3114304 48.375 36.8125 C46.81902781 35.68226773 45.26303803 34.55205966 43.70703125 33.421875 C42.92666504 32.85404297 42.14629883 32.28621094 41.34228516 31.70117188 C38.32909088 29.51272725 35.30647389 27.33752474 32.28369141 25.16235352 C29.30785211 23.01895113 26.33698153 20.8687507 23.36767578 18.71630859 C21.71055172 17.51507307 20.05260524 16.31497164 18.39404297 15.11572266 C15.7587197 13.20755073 13.12876327 11.29219584 10.5 9.375 C9.27035522 8.48663452 9.27035522 8.48663452 8.01586914 7.58032227 C7.25781982 7.02530029 6.49977051 6.47027832 5.71875 5.8984375 C5.04779297 5.41036621 4.37683594 4.92229492 3.68554688 4.41943359 C2 3 2 3 0 0 Z " fill="#004AC7" transform="translate(195,307)"/>
<path d="M0 0 C1.1810733 0.00007553 2.36214661 0.00015106 3.57901001 0.00022888 C4.85924042 0.00539017 6.13947083 0.01055145 7.45849609 0.01586914 C8.76523285 0.01728409 10.0719696 0.01869904 11.41830444 0.02015686 C14.89369617 0.02397645 18.36904616 0.03380197 21.84442139 0.04486084 C25.39025305 0.05508696 28.93609144 0.05965706 32.48193359 0.06469727 C39.44028581 0.07542473 46.3986034 0.09301703 53.35693359 0.11352539 C53.35693359 3.74352539 53.35693359 7.37352539 53.35693359 11.11352539 C51.84341309 11.12287109 50.32989258 11.1322168 48.77050781 11.1418457 C43.14569864 11.18177045 37.52143496 11.2475374 31.89697266 11.32104492 C29.46442685 11.3492399 27.03178967 11.37046171 24.59912109 11.38452148 C21.09864577 11.40597048 17.59926728 11.45263382 14.09912109 11.50415039 C13.01452606 11.50537903 11.92993103 11.50660767 10.81246948 11.50787354 C4.7530288 11.62494511 0.89664862 11.92316567 -3.64306641 16.11352539 C-5.44738222 21.52647283 -5.23654872 27.42227782 -5.64306641 33.11352539 C12.50693359 33.11352539 30.65693359 33.11352539 49.35693359 33.11352539 C49.35693359 37.07352539 49.35693359 41.03352539 49.35693359 45.11352539 C31.20693359 45.11352539 13.05693359 45.11352539 -5.64306641 45.11352539 C-5.64306641 54.68352539 -5.64306641 64.25352539 -5.64306641 74.11352539 C-9.60306641 74.11352539 -13.56306641 74.11352539 -17.64306641 74.11352539 C-17.71106473 66.55908544 -17.76601022 59.00476085 -17.79850292 51.4500885 C-17.81410431 47.94146275 -17.83524005 44.43305873 -17.86938477 40.92456055 C-17.90846393 36.88336151 -17.92282121 32.84239241 -17.93603516 28.80102539 C-17.95926094 26.92713135 -17.95926094 26.92713135 -17.98295593 25.01538086 C-17.98437274 17.63336414 -17.90328267 10.94010439 -12.88916016 5.05493164 C-12.29232422 4.59989258 -11.69548828 4.14485352 -11.08056641 3.67602539 C-10.48115234 3.20293945 -9.88173828 2.72985352 -9.26416016 2.24243164 C-6.03949529 -0.00317835 -3.90490485 -0.00830831 0 0 Z " fill="#F6F6F6" transform="translate(49.64306640625,432.886474609375)"/>
<path d="M0 0 C1.3422464 -0.01913956 1.3422464 -0.01913956 2.71160889 -0.03866577 C4.15228729 -0.04200424 4.15228729 -0.04200424 5.62207031 -0.04541016 C6.6184552 -0.05206696 7.61484009 -0.05872375 8.64141846 -0.06558228 C10.74953365 -0.07570258 12.85768085 -0.08039949 14.96582031 -0.08007812 C18.17469864 -0.08443801 21.38218646 -0.12072816 24.59082031 -0.15869141 C26.64289896 -0.1645625 28.69498412 -0.16852993 30.74707031 -0.17041016 C31.69942566 -0.18478119 32.65178101 -0.19915222 33.63299561 -0.21395874 C40.71487315 -0.16593722 46.05410745 1.35992643 51.47363281 6.03662109 C52.14265625 6.87386719 52.14265625 6.87386719 52.82519531 7.72802734 C53.51742187 8.56140625 53.51742187 8.56140625 54.22363281 9.41162109 C56.84339677 13.424699 57.69996816 16.96311647 57.67724609 21.72338867 C57.67709503 22.78411087 57.67694397 23.84483307 57.67678833 24.93769836 C57.66646576 26.07120224 57.65614319 27.20470612 57.64550781 28.37255859 C57.64267792 29.54187424 57.63984802 30.71118988 57.63693237 31.91593933 C57.62575094 35.64507342 57.60064966 39.37396602 57.57519531 43.10302734 C57.5651629 45.63362283 57.5560375 48.16422209 57.54785156 50.69482422 C57.52581819 56.89348476 57.49130193 63.09196513 57.45019531 69.29052734 C53.49019531 69.29052734 49.53019531 69.29052734 45.45019531 69.29052734 C45.42046631 67.04997559 45.42046631 67.04997559 45.39013672 64.76416016 C45.31409654 59.22525093 45.22537634 53.68660494 45.1328125 48.14794922 C45.09451627 45.75021561 45.05966456 43.35242441 45.02832031 40.95458984 C44.98268426 37.50906792 44.92468662 34.06394263 44.86425781 30.61865234 C44.8527066 29.54560852 44.8411554 28.4725647 44.82925415 27.36700439 C44.80938446 26.36626892 44.78951477 25.36553345 44.76904297 24.33447266 C44.7557193 23.45511047 44.74239563 22.57574829 44.72866821 21.66973877 C44.42590934 19.08303333 43.84821676 17.47947528 42.45019531 15.29052734 C37.93290896 12.33505092 33.90749988 11.84597217 28.63769531 11.89208984 C27.53977661 11.88778458 27.53977661 11.88778458 26.41967773 11.88339233 C24.88003765 11.88136088 23.34037122 11.88682622 21.80078125 11.89941406 C19.45676447 11.91548231 17.11447157 11.89953558 14.77050781 11.88037109 C13.26789988 11.88235369 11.765293 11.88619771 10.26269531 11.89208984 C9.56877686 11.88601715 8.8748584 11.87994446 8.15991211 11.87368774 C3.54080225 11.93978161 0.35706692 12.82702775 -3.54980469 15.29052734 C-5.72070122 18.54687214 -5.8127148 19.53696017 -5.86865234 23.31274414 C-5.88852203 24.3335759 -5.90839172 25.35440765 -5.92886353 26.40617371 C-5.94041473 27.50625259 -5.95196594 28.60633148 -5.96386719 29.73974609 C-5.98323334 30.86749954 -6.00259949 31.99525299 -6.02255249 33.15718079 C-6.08239776 36.76405237 -6.1287539 40.37095579 -6.17480469 43.97802734 C-6.21297987 46.42140074 -6.25203132 48.86476062 -6.29199219 51.30810547 C-6.38810355 57.30213644 -6.47211663 63.29623042 -6.54980469 69.29052734 C-10.50980469 69.29052734 -14.46980469 69.29052734 -18.54980469 69.29052734 C-18.6737158 61.60422599 -18.76429488 53.91851045 -18.82446289 46.23144531 C-18.84955421 43.61838651 -18.88363498 41.00539752 -18.92700195 38.39257812 C-18.98788614 34.62921894 -19.01606985 30.86679045 -19.03808594 27.10302734 C-19.06389236 25.94125977 -19.08969879 24.77949219 -19.11628723 23.58251953 C-19.11871532 16.5067448 -18.25635664 11.72307529 -13.54980469 6.29052734 C-9.37788149 2.42386682 -5.74630584 0.05586461 0 0 Z " fill="#F3F3F3" transform="translate(231.5498046875,438.70947265625)"/>
<path d="M0 0 C0.97231567 -0.00287018 1.94463135 -0.00574036 2.94641113 -0.00869751 C4.99373968 -0.01073095 7.04108797 -0.00525167 9.08837891 0.00732422 C12.20910384 0.02338785 15.32853375 0.00745068 18.44921875 -0.01171875 C20.44531534 -0.00973619 22.44141112 -0.00589225 24.4375 0 C25.36373169 -0.00607269 26.28996338 -0.01214539 27.2442627 -0.0184021 C34.20750874 0.05661153 39.05370902 1.0968112 44.46875 5.7734375 C49.1166026 11.1959322 50.84978635 15.45975286 50.83227539 22.53417969 C50.83216209 24.06531403 50.83216209 24.06531403 50.83204651 25.62738037 C50.82688522 26.72229797 50.82172394 27.81721558 50.81640625 28.9453125 C50.8149913 30.071651 50.81357635 31.1979895 50.81211853 32.35845947 C50.80652199 35.95514585 50.7939701 39.55176994 50.78125 43.1484375 C50.77623455 45.58723868 50.77167172 48.02604084 50.76757812 50.46484375 C50.75655369 56.44273233 50.7392914 62.42057435 50.71875 68.3984375 C46.75875 68.3984375 42.79875 68.3984375 38.71875 68.3984375 C38.71464111 66.94550293 38.71053223 65.49256836 38.70629883 63.99560547 C38.68449342 58.59436789 38.63018779 53.1938573 38.56616211 47.79296875 C38.54299463 45.45742776 38.52858936 43.12178248 38.52319336 40.78613281 C38.51389514 37.42447003 38.47288233 34.0644448 38.42578125 30.703125 C38.4297139 29.66227753 38.43364655 28.62143005 38.43769836 27.54904175 C38.32008314 21.2011382 38.32008314 21.2011382 35.36206055 15.75439453 C31.1455775 11.99628412 27.35395217 12.23864588 21.98046875 12.23046875 C20.84288872 12.22547615 20.84288872 12.22547615 19.68232727 12.22038269 C18.07769374 12.21532225 16.4730497 12.21297409 14.8684082 12.21313477 C12.42576504 12.21095492 9.98357851 12.19280858 7.54101562 12.17382812 C5.9791682 12.1708926 4.41731865 12.16890887 2.85546875 12.16796875 C2.13026535 12.16078323 1.40506195 12.15359772 0.65788269 12.14619446 C-3.68476783 12.16554129 -7.36350665 12.45473671 -11.28125 14.3984375 C-13.00391429 17.80961023 -13.54127273 20.66990349 -13.60009766 24.46411133 C-13.61996735 25.44475052 -13.63983704 26.42538971 -13.66030884 27.43574524 C-13.67763565 29.00475838 -13.67763565 29.00475838 -13.6953125 30.60546875 C-13.71467865 31.68600021 -13.7340448 32.76653168 -13.7539978 33.87980652 C-13.81367103 37.3234371 -13.86013041 40.76710133 -13.90625 44.2109375 C-13.94444101 46.54884252 -13.9834934 48.88673365 -14.0234375 51.22460938 C-14.11936271 56.94910555 -14.20343944 62.6736676 -14.28125 68.3984375 C-18.24125 68.3984375 -22.20125 68.3984375 -26.28125 68.3984375 C-26.38041768 61.13936307 -26.45286155 53.88068644 -26.50097656 46.62109375 C-26.52104295 44.15357592 -26.54830244 41.68610535 -26.58300781 39.21875 C-26.63174306 35.66394357 -26.65426939 32.10976806 -26.671875 28.5546875 C-26.69252014 27.45854126 -26.71316528 26.36239502 -26.73443604 25.23303223 C-26.73680339 17.0801699 -25.14120307 11.8767588 -19.96875 5.5859375 C-13.62245612 0.42034946 -7.90596448 -0.05183422 0 0 Z " fill="#F9F9F9" transform="translate(334.28125,438.6015625)"/>
<path d="M0 0 C1.1007637 0.00015106 2.2015274 0.00030212 3.33564758 0.00045776 C5.10152473 0.01594162 5.10152473 0.01594162 6.90307617 0.03173828 C8.72363777 0.03598312 8.72363777 0.03598312 10.58097839 0.04031372 C14.45276804 0.0514977 18.32432533 0.07659948 22.19604492 0.10205078 C24.8229947 0.11208287 27.44994811 0.12120832 30.0769043 0.12939453 C36.51254053 0.15143127 42.94800335 0.18594931 49.38354492 0.22705078 C49.38354492 3.85705078 49.38354492 7.48705078 49.38354492 11.22705078 C47.90031738 11.23639648 46.41708984 11.24574219 44.88891602 11.25537109 C39.37591734 11.29530028 33.86347496 11.36106838 28.35083008 11.43457031 C25.96678829 11.46276273 23.58265334 11.48398582 21.19848633 11.49804688 C17.7675004 11.51949948 14.33763268 11.56616442 10.90698242 11.61767578 C9.31290054 11.61951874 9.31290054 11.61951874 7.68661499 11.62139893 C1.63140837 11.74072955 -2.03538702 12.13245959 -6.61645508 16.22705078 C-9.81805354 21.02944847 -9.02673037 26.28964587 -9.04199219 31.94116211 C-9.05385897 34.02269272 -9.10301522 36.10122667 -9.15356445 38.18212891 C-9.48082204 46.12572592 -9.48082204 46.12572592 -6.27661133 53.11376953 C-2.68962633 55.96334205 -0.12880206 56.35403711 4.31396484 56.43237305 C5.81518135 56.46229088 5.81518135 56.46229088 7.34672546 56.49281311 C8.42493057 56.5095256 9.50313568 56.5262381 10.61401367 56.54345703 C12.27234978 56.57462868 12.27234978 56.57462868 13.96418762 56.60643005 C17.49974283 56.67187411 21.03537299 56.73078682 24.57104492 56.78955078 C26.966235 56.83274088 29.36141747 56.87635533 31.7565918 56.92041016 C37.6321658 57.0275503 43.50781528 57.12883246 49.38354492 57.22705078 C49.38354492 60.85705078 49.38354492 64.48705078 49.38354492 68.22705078 C41.55482714 68.35094703 33.72668418 68.44153416 25.8972168 68.50170898 C23.23526476 68.52397288 20.57466647 68.56087719 17.9128418 68.60424805 C14.07998706 68.66512111 10.24804604 68.69331356 6.41479492 68.71533203 C5.23115356 68.74113846 4.04751221 68.76694489 2.82800293 68.79353333 C-5.25740817 68.7962583 -10.25374053 67.38285188 -16.13146973 61.78388977 C-21.07004758 56.35742733 -21.92933105 50.61269272 -21.95239258 43.52001953 C-21.95904938 42.79518875 -21.96570618 42.07035797 -21.9725647 41.32356262 C-21.98264294 39.79654457 -21.98738322 38.26948291 -21.98706055 36.74243164 C-21.99142363 34.43121057 -22.02776225 32.12191791 -22.06567383 29.81103516 C-22.1327519 21.15258409 -22.1275012 13.02184611 -15.8659668 6.36645508 C-11.09378562 1.90574332 -6.58244544 -0.03026412 0 0 Z " fill="#F8F8F8" transform="translate(518.616455078125,438.77294921875)"/>
<path d="M0 0 C10.56 0 21.12 0 32 0 C31.38125 4.516875 30.7625 9.03375 30.125 13.6875 C28.90884554 22.67638345 27.76716058 31.64783635 27 40.6875 C26.24218307 49.4335087 25.01709027 58.07051845 23.67626953 66.74487305 C22.58865532 73.84232978 21.60257625 80.94338281 20.69921875 88.06640625 C20.53407021 89.36087929 20.53407021 89.36087929 20.36558533 90.6815033 C19.92439978 94.14569197 19.48404162 97.60987828 19.05941772 101.07614136 C18.76248101 103.49957353 18.45619376 105.9216718 18.1484375 108.34375 C18.06208542 109.07376724 17.97573334 109.80378448 17.88676453 110.55592346 C17.43344782 114.06241917 16.99919182 116.00121226 15 119 C12.3723924 102.76865161 10.15911712 86.54107455 8.35888672 70.19824219 C7.77357201 64.98217235 7.13488203 59.77272685 6.5 54.5625 C5.2915394 44.59823622 4.16455616 34.62630871 3.08984375 24.64672852 C2.19178468 16.40537822 1.09667548 8.22506608 0 0 Z " fill="#00D9FE" transform="translate(282,203)"/>
<path d="M0 0 C0 3.32791744 -0.33537748 3.81183657 -2.2734375 6.3359375 C-2.76344238 6.98135498 -3.25344727 7.62677246 -3.75830078 8.29174805 C-4.55856689 9.32295776 -4.55856689 9.32295776 -5.375 10.375 C-5.9201123 11.08889893 -6.46522461 11.80279785 -7.02685547 12.53833008 C-8.67787961 14.69745414 -10.33825565 16.8491213 -12 19 C-12.89122999 20.16229677 -13.78190406 21.32502014 -14.671875 22.48828125 C-17.97459136 26.79882612 -21.29439469 31.09595448 -24.6328125 35.37890625 C-28.84614699 40.79906346 -32.89671283 46.24894907 -36.63671875 52.01171875 C-39.22619793 55.7883517 -42.29759696 59.17566176 -45.41796875 62.51953125 C-48.76989845 66.24498977 -49.94740837 69.21549258 -51 74 C-48.9815783 76.16793442 -47.22967483 77.87307444 -44.625 79.3125 C-41.56349214 81.28061219 -39.75549368 83.57209879 -37.4765625 86.37109375 C-35.97292111 88.18980406 -35.97292111 88.18980406 -33.375 89.5625 C-30.23549231 91.46272834 -28.86516736 93.89138774 -27 97 C-31.1471209 95.33913848 -34.06659097 92.33978711 -37.25 89.3125 C-38.41611639 88.22206748 -39.58278099 87.13222092 -40.75 86.04296875 C-41.31074219 85.51751465 -41.87148438 84.99206055 -42.44921875 84.45068359 C-51.34492865 76.12916152 -60.9176399 70.00832323 -71.40551758 63.89453125 C-80.87430002 58.35487243 -90.16927078 52.51791918 -99 46 C-97.66794009 41.98987199 -96.04414071 39.77350776 -92.9375 36.9375 C-89.99444834 34.24990309 -88.91919279 32.80381405 -88 29 C-86.3984375 27.140625 -86.3984375 27.140625 -84.375 25.25 C-77.24744367 18.37609336 -71.12719113 10.76641369 -65 3 C-61.97505989 6.02494011 -62.17905066 9.7224275 -61.6875 13.8125 C-61.43566461 15.7891606 -61.18299361 17.76571483 -60.9296875 19.7421875 C-60.71650879 21.42973145 -60.71650879 21.42973145 -60.49902344 23.15136719 C-59.92395269 27.58650188 -59.31202688 32.01581438 -58.6953125 36.4453125 C-58.3494515 38.94391952 -58.00398591 41.44258095 -57.65859985 43.94125366 C-57.42889149 45.59802597 -57.19792535 47.2546244 -56.96566772 48.91104126 C-56.63537575 51.27212924 -56.31120669 53.63398846 -55.98828125 55.99609375 C-55.83850327 57.05130722 -55.83850327 57.05130722 -55.68569946 58.12783813 C-55.0985157 62.47328537 -54.90999979 66.62912037 -55 71 C-54.34 71 -53.68 71 -53 71 C-52.77828125 70.31164062 -52.5565625 69.62328125 -52.328125 68.9140625 C-50.66370604 65.26213148 -48.30174539 62.42856679 -45.75 59.375 C-40.97707199 53.54595956 -36.43264644 47.59143305 -32 41.5 C-27.22035793 34.94549428 -22.31169462 28.53544376 -17.20507812 22.23291016 C-13.32529657 17.43830866 -9.60448257 12.54469802 -5.9375 7.5859375 C-4.00978408 5.01305859 -2.02140792 2.49968747 0 0 Z " fill="#007FF7" transform="translate(415,158)"/>
<path d="M0 0 C3.36340411 0.73784326 4.9162779 1.55189976 7.3125 4.0625 C7.91320312 4.69027344 8.51390625 5.31804687 9.1328125 5.96484375 C12.92819366 10.10165041 16.64218917 14.28276865 20.125 18.6875 C22.0109788 21.09540732 22.0109788 21.09540732 24.4375 23.4375 C28.23211985 27.23211985 31.84056187 31.01668123 34 36 C34.37125 36.7425 34.7425 37.485 35.125 38.25 C35.41375 38.8275 35.7025 39.405 36 40 C30.5 45 30.5 45 26 45 C25.67 45.99 25.34 46.98 25 48 C23.43579102 48.9921875 23.43579102 48.9921875 21.44140625 49.875 C17.04523958 51.93640732 13.02256871 54.38492207 8.9375 57 C-5.20340909 66 -5.20340909 66 -8 66 C-8.25032134 56.96161163 -7.29796697 48.14561602 -6.25 39.1875 C-6.1617395 38.41763763 -6.073479 37.64777527 -5.98254395 36.85458374 C-4.55248726 24.44737455 -2.66571739 12.20841845 0 0 Z " fill="#0068ED" transform="translate(244,164)"/>
<path d="M0 0 C0 3.67181304 -1.10023214 5.71973969 -2.625 9.0625 C-5.48344547 15.47835076 -7.77423048 22.0043623 -9.90673828 28.69360352 C-12.3853939 36.41796741 -15.44444464 43.06273896 -20.125 49.6875 C-20.60783447 50.3779541 -21.09066895 51.0684082 -21.58813477 51.77978516 C-23.04976554 53.85973353 -24.52297508 55.93096305 -26 58 C-26.43779785 58.61794434 -26.8755957 59.23588867 -27.32666016 59.87255859 C-28.51919453 61.54841495 -29.72469091 63.21377682 -30.9375 64.875 C-31.62714844 65.82117188 -32.31679687 66.76734375 -33.02734375 67.7421875 C-34.98359886 69.98122801 -36.35377079 70.7889379 -39 72 C-39.27322046 66.30784332 -39.47207961 60.61954402 -39.60424805 54.92236328 C-39.65936059 52.98776754 -39.73428109 51.05362583 -39.82983398 49.12060547 C-40.60386323 33.0522551 -40.60386323 33.0522551 -36.77490234 28.15283203 C-33.94603896 26.13611519 -31.08919866 24.58021902 -28 23 C-25.79982776 21.25453953 -25.79982776 21.25453953 -23.890625 19.3671875 C-23.28089844 18.78839844 -22.67117187 18.20960938 -22.04296875 17.61328125 C-21.45128906 17.03964844 -20.85960937 16.46601563 -20.25 15.875 C-16.63900669 12.41733974 -13.02631466 8.96309488 -9.296875 5.6328125 C-8.49008301 4.90795654 -8.49008301 4.90795654 -7.66699219 4.16845703 C-5.79182302 2.85408098 -4.20725761 2.5296295 -2 2 C-1.34 1.34 -0.68 0.68 0 0 Z " fill="#009BFB" transform="translate(233,235)"/>
<path d="M0 0 C8.17067876 2.58021435 16.12045093 5.64352542 24 9 C24.88558594 9.37608398 25.77117187 9.75216797 26.68359375 10.13964844 C29.55289997 11.37652015 32.40241083 12.65149986 35.25 13.9375 C36.16749023 14.33203369 37.08498047 14.72656738 38.03027344 15.13305664 C42.3174547 17.11505599 44.53559139 18.20728669 46.97265625 22.3671875 C47.31167969 23.56601562 47.65070313 24.76484375 48 26 C48.38542969 27.18980469 48.77085937 28.37960937 49.16796875 29.60546875 C49.50441406 30.78753906 49.84085937 31.96960938 50.1875 33.1875 C50.53167969 34.37730469 50.87585938 35.56710937 51.23046875 36.79296875 C52 40 52 40 52 44 C44.78603257 42.44372837 38.08901248 39.92687387 31.3125 37.0625 C30.51739014 36.72669922 29.72228027 36.39089844 28.90307617 36.04492188 C27.34480753 35.37600656 25.791819 34.69464365 24.24462891 34.00048828 C22.78112677 33.3481681 21.30415054 32.72504854 19.81396484 32.13623047 C14.08347123 29.6879788 11.7571013 26.4904856 9 21 C8.39357666 19.81519043 8.39357666 19.81519043 7.77490234 18.60644531 C6.54105364 16.12896709 5.35779792 13.63305944 4.1875 11.125 C3.78080078 10.27164062 3.37410156 9.41828125 2.95507812 8.5390625 C0 2.26138393 0 2.26138393 0 0 Z " fill="#000205" transform="translate(223,277)"/>
<path d="M0 0 C-1.6271379 3.7729788 -3.29642777 7.52409963 -5.00488281 11.26098633 C-5.578593 12.53122962 -6.14107317 13.80661344 -6.69140625 15.0871582 C-11.8545407 27.06432065 -11.8545407 27.06432065 -17.5703125 30 C-19.36668247 30.70229787 -21.17835314 31.36614665 -23 32 C-25.27347921 32.95859259 -27.54415716 33.92384683 -29.8125 34.89453125 C-32.20664638 35.87133248 -34.6025099 36.84393469 -37 37.8125 C-38.23839567 38.319382 -39.47667763 38.82654192 -40.71484375 39.33398438 C-49.74271896 43 -49.74271896 43 -52 43 C-51.30244365 34.10615648 -49.23197689 24.36229355 -44 17 C-41.51074219 15.42602539 -41.51074219 15.42602539 -38.546875 14.09765625 C-36.91504272 13.354552 -36.91504272 13.354552 -35.25024414 12.59643555 C-34.09516357 12.09023682 -32.94008301 11.58403809 -31.75 11.0625 C-30.57880615 10.53760986 -29.4076123 10.01271973 -28.20092773 9.47192383 C-24.80898281 7.96124143 -21.40747323 6.47527216 -18 5 C-17.12811035 4.62004883 -16.2562207 4.24009766 -15.35791016 3.84863281 C-3.64281518 -1.21427173 -3.64281518 -1.21427173 0 0 Z " fill="#00030B" transform="translate(373,278)"/>
<path d="M0 0 C0.77633789 -0.00761353 1.55267578 -0.01522705 2.35253906 -0.02307129 C3.98629556 -0.03382833 5.62012058 -0.03674335 7.25390625 -0.03222656 C9.74335836 -0.0312526 12.22974087 -0.07295156 14.71875 -0.1171875 C16.31249362 -0.12239424 17.90624787 -0.1250827 19.5 -0.125 C20.23766602 -0.14139526 20.97533203 -0.15779053 21.73535156 -0.17468262 C27.51702237 -0.09792595 29.84961124 1.50554823 33.75 5.46875 C35.20147903 8.37170805 35.12239025 10.24136779 34.75 13.46875 C32.93689858 16.39812654 30.87704101 18.90522949 27.75 20.46875 C26.29962893 20.55824417 24.84521371 20.5863344 23.39208984 20.58227539 C22.04091568 20.58216209 22.04091568 20.58216209 20.66244507 20.58204651 C19.68844757 20.57688522 18.71445007 20.57172394 17.7109375 20.56640625 C16.71494537 20.5649913 15.71895325 20.56357635 14.69277954 20.56211853 C11.50348947 20.55650936 8.31426894 20.5439553 5.125 20.53125 C2.96614685 20.52623618 0.80729259 20.52167307 -1.3515625 20.51757812 C-6.6510655 20.50653695 -11.95052778 20.48978988 -17.25 20.46875 C-17.33160748 18.57364301 -17.38946459 16.67750496 -17.4375 14.78125 C-17.47230469 13.72550781 -17.50710938 12.66976563 -17.54296875 11.58203125 C-17.20247577 7.9637259 -16.53787213 6.28422367 -14.25 3.46875 C-9.64551719 0.39572894 -5.39733968 0.00147372 0 0 Z " fill="#07081A" transform="translate(432.25,449.53125)"/>
<path d="M0 0 C1.13901512 -0.00642769 1.13901512 -0.00642769 2.30104065 -0.01298523 C3.90389002 -0.01871708 5.50676541 -0.01923723 7.10961914 -0.01489258 C9.55465317 -0.01173393 11.99847494 -0.03519981 14.44335938 -0.06054688 C16.00390473 -0.06282022 17.56445332 -0.0635232 19.125 -0.0625 C19.85222763 -0.07170975 20.57945526 -0.08091949 21.32872009 -0.09040833 C26.84149243 -0.04045777 30.06994594 1.24182094 33.94140625 5.11328125 C35.54997687 8.07643766 35.536956 9.96837494 35.12890625 13.30078125 C33.40226324 17.09939587 31.96626603 18.75702512 28.12890625 20.30078125 C25.97747803 20.54129028 25.97747803 20.54129028 23.63574219 20.52783203 C22.75513123 20.52768097 21.87452026 20.52752991 20.96722412 20.52737427 C19.5545224 20.51189041 19.5545224 20.51189041 18.11328125 20.49609375 C17.14231506 20.49326385 16.17134888 20.49043396 15.17095947 20.48751831 C12.0734824 20.47633417 8.97629575 20.45123267 5.87890625 20.42578125 C3.77734793 20.41574917 1.67578507 20.40662372 -0.42578125 20.3984375 C-5.57433044 20.37640059 -10.72266288 20.3418827 -15.87109375 20.30078125 C-15.9797432 18.23945983 -16.05697696 16.17646804 -16.12109375 14.11328125 C-16.1675 12.96472656 -16.21390625 11.81617188 -16.26171875 10.6328125 C-15.79067198 6.61478353 -14.7276154 5.11235763 -11.87109375 2.30078125 C-8.29424407 -0.33131519 -4.27170749 -0.00533871 0 0 Z " fill="#060611" transform="translate(147.87109375,449.69921875)"/>
<path d="M0 0 C1.22589844 0.15275391 1.22589844 0.15275391 2.4765625 0.30859375 C3.41628906 0.43427734 3.41628906 0.43427734 4.375 0.5625 C4.375 1.8825 4.375 3.2025 4.375 4.5625 C2.395 3.9025 0.415 3.2425 -1.625 2.5625 C0.09487244 6.34484286 1.83692214 10.11590639 3.59960938 13.87841797 C4.19522302 15.1578245 4.78485063 16.44003651 5.36816406 17.72509766 C6.21133224 19.57977987 7.07604327 21.42305806 7.9453125 23.265625 C8.45852051 24.37583008 8.97172852 25.48603516 9.50048828 26.62988281 C12.34313547 31.07711882 16.31895325 33.3937047 21.20703125 35.1953125 C21.85994141 35.44410156 22.51285156 35.69289063 23.18554688 35.94921875 C23.84619141 36.19285156 24.50683594 36.43648438 25.1875 36.6875 C32.24127907 39.29505814 32.24127907 39.29505814 33.375 41.5625 C25.43074183 40.71736615 18.42465721 39.04500185 12.375 33.5625 C12.045 33.5625 11.715 33.5625 11.375 33.5625 C11.705 34.2225 12.035 34.8825 12.375 35.5625 C11.055 35.2325 9.735 34.9025 8.375 34.5625 C8.375 35.2225 8.375 35.8825 8.375 36.5625 C-4.10009487 36.05079172 -16.29401453 34.47437829 -28.625 32.5625 C-28.25640869 32.0778125 -27.88781738 31.593125 -27.50805664 31.09375 C-23.90571117 26.32804571 -20.43690095 21.49172478 -17.0625 16.5625 C-16.37897461 15.5725 -16.37897461 15.5725 -15.68164062 14.5625 C-12.88885871 10.49449335 -10.24564735 6.37031672 -7.72290039 2.12890625 C-5.54887353 -0.97284077 -3.45059184 -0.44364752 0 0 Z " fill="#00B7FD" transform="translate(224.625,274.4375)"/>
<path d="M0 0 C8.25 0 16.5 0 25 0 C23 11 23 11 22 16 C15.73 16 9.46 16 3 16 C2.01 10.72 1.02 5.44 0 0 Z " fill="#00010A" transform="translate(285,367)"/>
<path d="M0 0 C0 3.32791744 -0.33537748 3.81183657 -2.2734375 6.3359375 C-2.76344238 6.98135498 -3.25344727 7.62677246 -3.75830078 8.29174805 C-4.29181152 8.97922119 -4.82532227 9.66669434 -5.375 10.375 C-5.9201123 11.08889893 -6.46522461 11.80279785 -7.02685547 12.53833008 C-8.67787961 14.69745414 -10.33825565 16.8491213 -12 19 C-12.89122999 20.16229677 -13.78190406 21.32502014 -14.671875 22.48828125 C-17.97459136 26.79882612 -21.29439469 31.09595448 -24.6328125 35.37890625 C-28.84614699 40.79906346 -32.89671283 46.24894907 -36.63671875 52.01171875 C-39.22619793 55.7883517 -42.29759696 59.17566176 -45.41796875 62.51953125 C-48.76989845 66.24498977 -49.94740837 69.21549258 -51 74 C-48.9815783 76.16793442 -47.22967483 77.87307444 -44.625 79.3125 C-41.56349214 81.28061219 -39.75549368 83.57209879 -37.4765625 86.37109375 C-35.97292111 88.18980406 -35.97292111 88.18980406 -33.375 89.5625 C-30.23549231 91.46272834 -28.86516736 93.89138774 -27 97 C-31.1470191 95.33917924 -34.06685257 92.33997761 -37.25 89.3125 C-38.41473942 88.22198815 -39.58010179 87.13214126 -40.74609375 86.04296875 C-41.58696533 85.2547876 -41.58696533 85.2547876 -42.44482422 84.45068359 C-48.02527862 79.24517966 -53.8253806 74.48316781 -60 70 C-59.01 69.505 -59.01 69.505 -58 69 C-58.09087891 67.87078125 -58.09087891 67.87078125 -58.18359375 66.71875 C-58.8857455 57.81762622 -59.46229318 48.91220461 -60 40 C-58.42751266 42.85261692 -57.62815828 45.30338924 -57.1484375 48.51953125 C-57.01953125 49.37740234 -56.890625 50.23527344 -56.7578125 51.11914062 C-56.63148438 52.00794922 -56.50515625 52.89675781 -56.375 53.8125 C-56.2409375 54.68970703 -56.106875 55.56691406 -55.96875 56.47070312 C-55.250541 61.36991455 -54.85142539 66.04976404 -55 71 C-54.34 71 -53.68 71 -53 71 C-52.77828125 70.31164062 -52.5565625 69.62328125 -52.328125 68.9140625 C-50.66370604 65.26213148 -48.30174539 62.42856679 -45.75 59.375 C-40.97707199 53.54595956 -36.43264644 47.59143305 -32 41.5 C-27.22035793 34.94549428 -22.31169462 28.53544376 -17.20507812 22.23291016 C-13.32529657 17.43830866 -9.60448257 12.54469802 -5.9375 7.5859375 C-4.00978408 5.01305859 -2.02140792 2.49968747 0 0 Z " fill="#0067E6" transform="translate(415,158)"/>
<path d="M0 0 C3.95178995 3.8000759 7.41175523 7.82880259 10.8125 12.125 C11.60406494 13.11959229 11.60406494 13.11959229 12.41162109 14.13427734 C16.07908567 18.76869016 19.59713529 23.49222559 23.0390625 28.296875 C25.53048937 31.7312722 28.11834847 35.08606333 30.71166992 38.44384766 C34.9661247 43.95301695 39.20735243 49.47213884 43.4375 55 C44.13617188 55.90862793 44.83484375 56.81725586 45.5546875 57.75341797 C46.21597656 58.61854004 46.87726563 59.48366211 47.55859375 60.375 C48.14954834 61.14585937 48.74050293 61.91671875 49.34936523 62.7109375 C51.0576124 65.07989556 52.61826858 67.42562752 54 70 C53.03707293 73.93577335 49.81823962 76.2094956 46.875 78.8125 C45.89273438 79.68390625 44.91046875 80.5553125 43.8984375 81.453125 C42.94195312 82.29359375 41.98546875 83.1340625 41 84 C40.20851562 84.71671875 39.41703125 85.4334375 38.6015625 86.171875 C37.90804687 86.79578125 37.21453125 87.4196875 36.5 88.0625 C35.58734375 88.88427734 35.58734375 88.88427734 34.65625 89.72265625 C33 91 33 91 30 92 C30 91.34 30 90.68 30 90 C31.57286684 88.58561594 33.21139996 87.24395599 34.875 85.9375 C40.44119382 81.4903205 45.74949867 76.81770513 51 72 C49.3590469 66.8745539 46.27243435 62.91185757 43.125 58.625 C42.55144775 57.83786621 41.97789551 57.05073242 41.38696289 56.23974609 C37.50649265 50.95269181 33.52730421 45.75169213 29.4375 40.625 C28.94975098 40.01350098 28.46200195 39.40200195 27.95947266 38.77197266 C26.03907545 36.39640985 24.1314397 34.12431494 21.91015625 32.0234375 C19.87209412 29.8645087 18.61141803 27.58296927 17.19628906 24.98925781 C14.29025257 20.15693427 10.48975531 15.87782278 6.95703125 11.49609375 C6.34988281 10.73167969 5.74273437 9.96726563 5.1171875 9.1796875 C4.56659668 8.49632324 4.01600586 7.81295898 3.44873047 7.10888672 C1.88260953 4.82911714 0.93362418 2.59591683 0 0 Z " fill="#003ABC" transform="translate(181,160)"/>
<path d="M0 0 C0.33 0 0.66 0 1 0 C0.96667299 1.72997483 0.89697108 3.45926731 0.8125 5.1875 C0.77769531 6.15042969 0.74289062 7.11335937 0.70703125 8.10546875 C-0.71673528 13.9342588 -5.30994744 16.29066499 -10.1328125 19.3046875 C-12.12584125 20.50209071 -14.12339005 21.69199719 -16.125 22.875 C-19.10401011 24.65380525 -22.07721531 26.43399298 -25.02124023 28.27026367 C-28 30 -28 30 -31.15258789 31.28637695 C-34.60032222 32.86606512 -36.59175691 34.04706178 -39 37 C-40.93967694 43.5631102 -40.35438939 50.67467351 -40.1875 57.4375 C-40.18053663 59.33267051 -40.17853243 61.22786613 -40.18164062 63.12304688 C-40.17846241 67.75096063 -40.10753674 72.37338243 -40 77 C-40.33 77 -40.66 77 -41 77 C-41 63.8 -41 50.6 -41 37 C-41.66 36.67 -42.32 36.34 -43 36 C-41.90945313 35.484375 -40.81890625 34.96875 -39.6953125 34.4375 C-34.17852071 31.67788949 -29.05336292 28.34042844 -23.875 25 C-22.43060547 24.07574219 -22.43060547 24.07574219 -20.95703125 23.1328125 C-19.10786555 21.94751509 -17.26182329 20.75732606 -15.41943359 19.56152344 C-13.97942772 18.63213115 -12.53175527 17.71419905 -11.06884766 16.82128906 C-7.88596704 14.84570799 -6.12060254 13.20139047 -4.625 9.75 C-4.14933594 8.69039062 -4.14933594 8.69039062 -3.6640625 7.609375 C-3.33535156 6.81273437 -3.33535156 6.81273437 -3 6 C-2.34 6 -1.68 6 -1 6 C-0.67 4.02 -0.34 2.04 0 0 Z " fill="#00B9E6" transform="translate(442,230)"/>
<path d="M0 0 C8.58 0 17.16 0 26 0 C26 0.33 26 0.66 26 1 C17.75 1 9.5 1 1 1 C1.99 3.97 2.98 6.94 4 10 C4 12.31 4 14.62 4 17 C10.27 17 16.54 17 23 17 C23 15.35 23 13.7 23 12 C23.66 12 24.32 12 25 12 C25.66 10.68 26.32 9.36 27 8 C27 8.66 27 9.32 27 10 C27.66 10 28.32 10 29 10 C27.99806563 13.79303725 27.18975773 16.71536341 25 20 C22.98461914 20.37231445 22.98461914 20.37231445 20.53515625 20.36328125 C19.65279297 20.36263672 18.77042969 20.36199219 17.86132812 20.36132812 C16.93771484 20.34521484 16.01410156 20.32910156 15.0625 20.3125 C14.14275391 20.31572266 13.22300781 20.31894531 12.27539062 20.32226562 C5.40066099 20.26710733 5.40066099 20.26710733 2 18 C1.26953125 15.13671875 1.26953125 15.13671875 0.8125 11.6875 C0.65394531 10.55699219 0.49539063 9.42648437 0.33203125 8.26171875 C0 5 0 5 0 0 Z " fill="#0185C1" transform="translate(284,366)"/>
<path d="M0 0 C0 0.66 0 1.32 0 2 C-0.5576001 2.235979 -1.1152002 2.47195801 -1.68969727 2.71508789 C-7.21859905 5.05897876 -12.73573204 7.4287744 -18.24609375 9.81591797 C-20.68810727 10.86589718 -23.13874853 11.89106807 -25.59375 12.91015625 C-26.91721358 13.48050341 -28.24016997 14.05202963 -29.5625 14.625 C-30.71878906 15.11226563 -31.87507813 15.59953125 -33.06640625 16.1015625 C-36.90794961 18.58756792 -38.01843465 20.92059163 -40 25 C-40.33 25 -40.66 25 -41 25 C-41 22.36 -41 19.72 -41 17 C-40.01 17 -39.02 17 -38 17 C-36.15369638 15.99739068 -34.34584401 14.92324149 -32.5625 13.8125 C-26.58197493 10.22127118 -20.47597698 7.55242089 -14 5 C-13.34 4.67 -12.68 4.34 -12 4 C-12.99 3.34 -13.98 2.68 -15 2 C-11.83593133 -1.16406867 -4.17570709 -0.08521851 0 0 Z " fill="#00E8F6" transform="translate(365,278)"/>
<path d="M0 0 C3.77484574 0.55338053 6.12387105 1.49552624 9.1875 3.75 C10.05632812 4.38035156 10.92515625 5.01070313 11.8203125 5.66015625 C13.39425781 6.81837891 13.39425781 6.81837891 15 8 C17.08832156 9.51405935 19.17970621 11.02382919 21.27124023 12.53344727 C22.80537982 13.64093749 24.33873979 14.74950844 25.87133789 15.85913086 C33.86502299 21.64266488 41.9267548 27.32828976 50 33 C49.01 33.33 48.02 33.66 47 34 C45.18164062 33.04711914 45.18164062 33.04711914 43.15625 31.53515625 C42.41052734 30.98657959 41.66480469 30.43800293 40.89648438 29.87280273 C40.10564453 29.27540283 39.31480469 28.67800293 38.5 28.0625 C37.68337891 27.45929932 36.86675781 26.85609863 36.02539062 26.23461914 C33.67685322 24.49859184 31.33742044 22.75095193 29 21 C21.44052013 15.38944853 13.72004112 10.09544822 5.83984375 4.94702148 C5.08445313 4.45016846 4.3290625 3.95331543 3.55078125 3.44140625 C2.86669189 2.99482666 2.18260254 2.54824707 1.4777832 2.08813477 C0.99011475 1.72905029 0.50244629 1.36996582 0 1 C0 0.67 0 0.34 0 0 Z " fill="#00E5F2" transform="translate(175,114)"/>
<path d="M0 0 C3.81407624 0.55344113 6.1609326 1.52903471 9.25 3.8125 C10.11753906 4.4415625 10.98507813 5.070625 11.87890625 5.71875 C13.42384766 6.84796875 13.42384766 6.84796875 15 8 C17.7222057 9.9473642 20.45415044 11.8808183 23.1875 13.8125 C23.90768311 14.32240479 24.62786621 14.83230957 25.36987305 15.35766602 C32.48713778 20.37915569 39.72379965 25.21274737 47 30 C46.01 30.33 45.02 30.66 44 31 C41.56732854 29.60430373 39.34558272 28.17397017 37.0625 26.5625 C35.69937227 25.6247768 34.33608926 24.68727927 32.97265625 23.75 C32.29734863 23.28078125 31.62204102 22.8115625 30.92626953 22.328125 C28.31397411 20.52699862 25.65659382 18.79741841 23 17.0625 C18.20335427 13.86691449 13.52546924 10.5279853 8.875 7.125 C8.22273438 6.64812744 7.57046875 6.17125488 6.8984375 5.67993164 C4.46498834 3.88545622 2.14122837 2.14122837 0 0 Z " fill="#00E6F2" transform="translate(117,74)"/>
<path d="M0 0 C0.33 0 0.66 0 1 0 C1 15.18 1 30.36 1 46 C-2.96 46 -6.92 46 -11 46 C-10.67 45.01 -10.34 44.02 -10 43 C-7.69 43 -5.38 43 -3 43 C-2.67 35.08 -2.34 27.16 -2 19 C-1.67 19 -1.34 19 -1 19 C-0.67 12.73 -0.34 6.46 0 0 Z " fill="#C8C9CC" transform="translate(319,461)"/>
<path d="M0 0 C2.22816464 4.14483045 1.97237175 6.18699656 0.83984375 10.6875 C-0.2605651 13.71746298 -1.84947989 15.99128948 -3.83984375 18.50390625 C-5.11939677 20.04239698 -5.11939677 20.04239698 -6.0625 22.25 C-7.31626981 24.59037032 -8.71309609 25.68329775 -11 27 C-11.99 26.67 -12.98 26.34 -14 26 C-13.56067139 25.61481201 -13.12134277 25.22962402 -12.66870117 24.83276367 C-10.64456031 22.60961438 -9.57869745 20.39699103 -8.30078125 17.67578125 C-7.81416016 16.64775391 -7.32753906 15.61972656 -6.82617188 14.56054688 C-6.32666016 13.48869141 -5.82714844 12.41683594 -5.3125 11.3125 C-4.80138672 10.22904297 -4.29027344 9.14558594 -3.76367188 8.02929688 C-2.50334233 5.35551362 -1.24904812 2.67906719 0 0 Z " fill="#0CE3FA" transform="translate(371,280)"/>
<path d="M0 0 C2.25423368 2.0625862 3.56504045 3.84860513 4.76171875 6.65234375 C5.07689453 7.34650391 5.39207031 8.04066406 5.71679688 8.75585938 C6.35928778 10.19984799 6.98717496 11.65043122 7.59960938 13.10742188 C10.2373796 18.81113745 13.20526126 20.8015163 19 23 C20.11246094 23.46664063 21.22492188 23.93328125 22.37109375 24.4140625 C24.43291448 25.2282847 26.49542735 26.04075618 28.55859375 26.8515625 C31 28 31 28 32 30 C24.00193978 29.14914253 17.13292163 27.4320163 11 22 C10.0409375 21.68869141 10.0409375 21.68869141 9.0625 21.37109375 C5.77172549 19.1834766 5.03644265 15.71735115 3.8125 12.125 C3.55275391 11.40441406 3.29300781 10.68382812 3.02539062 9.94140625 C1.85323822 6.65211036 0.8116869 3.39843836 0 0 Z " fill="#00BFF0" transform="translate(226,286)"/>
<path d="M0 0 C0.33 0.66 0.66 1.32 1 2 C0.34837479 3.6726048 -0.32185521 5.33797056 -1 7 C-1.52106363 9.38707159 -1.99670771 11.78431041 -2.4375 14.1875 C-3.58605545 20.25822301 -5.05410648 26.1347181 -7 32 C-7.33 32 -7.66 32 -8 32 C-7.29411026 24.94110263 -6.21786614 17.98795036 -5 11 C-5.66 11 -6.32 11 -7 11 C-6.25 8.625 -6.25 8.625 -5 6 C-3.67479497 5.31731862 -2.34187818 4.6492959 -1 4 C-0.19471111 1.94999129 -0.19471111 1.94999129 0 0 Z M-9 12 C-9 12.99 -9 13.98 -9 15 C-11 16.6875 -11 16.6875 -13 18 C-11.84826645 15.53199953 -10.95216435 13.95216435 -9 12 Z M-14 18 C-14 18.99 -14 19.98 -14 21 C-14.66 20.67 -15.32 20.34 -16 20 C-15.34 19.34 -14.68 18.68 -14 18 Z " fill="#0094E6" transform="translate(487,65)"/>
<path d="M0 0 C3.49638496 1.27398333 6.28477484 2.74558627 9.2578125 4.9765625 C10.04373779 5.56163574 10.82966309 6.14670898 11.6394043 6.74951172 C12.45965088 7.36842285 13.27989746 7.98733398 14.125 8.625 C15.82143284 9.8908686 17.51804668 11.15649466 19.21484375 12.421875 C20.0332373 13.03482422 20.85163086 13.64777344 21.69482422 14.27929688 C24.67437346 16.50338744 27.67715138 18.69279161 30.6875 20.875 C31.53699219 21.49117188 32.38648438 22.10734375 33.26171875 22.7421875 C33.83535156 23.15726562 34.40898437 23.57234375 35 24 C34.01 24.495 34.01 24.495 33 25 C2.10777512 4.21555024 2.10777512 4.21555024 0 0 Z " fill="#005EE2" transform="translate(218,324)"/>
<path d="M0 0 C3.5777444 0.5709271 5.11618088 1.80292912 7.53125 4.45703125 C8.49998047 5.50793945 8.49998047 5.50793945 9.48828125 6.58007812 C10.15214844 7.31677734 10.81601562 8.05347656 11.5 8.8125 C12.82245711 10.2569313 14.14536074 11.70095394 15.46875 13.14453125 C16.08234375 13.81822754 16.6959375 14.49192383 17.328125 15.18603516 C19.16577257 17.1798613 21.05558421 19.1101469 23 21 C22.01 21.66 21.02 22.32 20 23 C3.1328976 4.69934641 3.1328976 4.69934641 0 0 Z " fill="#00083B" transform="translate(246,163)"/>
<path d="M0 0 C3.34944548 5.02416822 3.09834146 9.09951257 3 15 C-0.26008643 11.83047153 -3.22237877 8.60062011 -6 5 C-4.02 3.35 -2.04 1.7 0 0 Z " fill="#00349F" transform="translate(283,368)"/>
<path d="M0 0 C3.9922348 3.83840556 7.49517071 7.91531642 10.9375 12.25 C11.46311523 12.9087915 11.98873047 13.56758301 12.53027344 14.24633789 C16.28671783 18.99662149 19.81427553 23.84415645 23 29 C22.01 29.33 21.02 29.66 20 30 C19.48695313 29.03320312 18.97390625 28.06640625 18.4453125 27.0703125 C15.22607226 21.43451482 11.01988714 16.535359 6.95703125 11.49609375 C6.34988281 10.73167969 5.74273437 9.96726563 5.1171875 9.1796875 C4.56659668 8.49632324 4.01600586 7.81295898 3.44873047 7.10888672 C1.88260953 4.82911714 0.93362418 2.59591683 0 0 Z " fill="#004ED2" transform="translate(181,160)"/>
<path d="M0 0 C-1.60970382 3.21940764 -4.75850386 3.87562317 -8 5 C-19.13201094 8.28932969 -19.13201094 8.28932969 -23 7 C-18.66368839 4.75154213 -14.30020037 2.61848951 -9.8125 0.6875 C-9.01457031 0.34074219 -8.21664063 -0.00601562 -7.39453125 -0.36328125 C-4.57991899 -1.1117018 -2.77998058 -0.76535877 0 0 Z " fill="#00D3EF" transform="translate(345,314)"/>
<path d="M0 0 C0.82638376 2.89234315 1 4.88742431 1 8 C1.99 7.67 2.98 7.34 4 7 C4.66 8.32 5.32 9.64 6 11 C3.03 13.475 3.03 13.475 0 16 C0.66 14.35 1.32 12.7 2 11 C1.34 11 0.68 11 0 11 C-0.66 12.98 -1.32 14.96 -2 17 C-2.33 17 -2.66 17 -3 17 C-3.34548714 10.66606918 -2.29342747 5.89738492 0 0 Z " fill="#009FE0" transform="translate(311,365)"/>
<path d="M0 0 C0.33 0 0.66 0 1 0 C0.80947731 9.88985969 0.80947731 9.88985969 -2.1875 14 C-5.02584598 16.01837937 -7.81612695 17.59317237 -11 19 C-10 16 -10 16 -8.125 14.1875 C-5.69059284 11.68149263 -4.43809163 9.16380159 -3 6 C-2.34 6 -1.68 6 -1 6 C-0.67 4.02 -0.34 2.04 0 0 Z " fill="#00ABEC" transform="translate(442,230)"/>
<path d="M0 0 C0.33 0 0.66 0 1 0 C1 13.2 1 26.4 1 40 C-1.95664519 41.4783226 -4.74229737 41.06032783 -8 41 C-8 40.34 -8 39.68 -8 39 C-5.36 38.67 -2.72 38.34 0 38 C0 25.46 0 12.92 0 0 Z " fill="#00E9FE" transform="translate(400,267)"/>
<path d="M0 0 C5.58035716 1.70357438 10.81534655 4.04545088 16.125 6.4375 C17.01832031 6.83259766 17.91164062 7.22769531 18.83203125 7.63476562 C19.69441406 8.02212891 20.55679688 8.40949219 21.4453125 8.80859375 C22.22406738 9.15720459 23.00282227 9.50581543 23.80517578 9.86499023 C26.07829059 11.04048642 27.99951239 12.41037257 30 14 C26.45045834 13.39273759 23.39057509 12.44448953 20.09375 11.00390625 C19.18496094 10.61009766 18.27617187 10.21628906 17.33984375 9.81054688 C16.40269531 9.39869141 15.46554688 8.98683594 14.5 8.5625 C12.63561785 7.75083982 10.77104072 6.93962732 8.90625 6.12890625 C8.08447266 5.76869385 7.26269531 5.40848145 6.41601562 5.03735352 C3.95964534 3.98267311 1.48597681 2.98260281 -1 2 C-0.67 1.34 -0.34 0.68 0 0 Z " fill="#00C9E3" transform="translate(231,278)"/>
<path d="M0 0 C1.32 0 2.64 0 4 0 C5.61270411 5.01730167 4.55290597 9.83954431 4 15 C9.28 15 14.56 15 20 15 C20 15.33 20 15.66 20 16 C14.39 16 8.78 16 3 16 C2.01 10.72 1.02 5.44 0 0 Z " fill="#01102B" transform="translate(285,367)"/>
<path d="M0 0 C0.99 0.33 1.98 0.66 3 1 C2.67 1.66 2.34 2.32 2 3 C1.01 3.33 0.02 3.66 -1 4 C-2.83174295 6.84937793 -3.44739574 9.68437443 -4 13 C-4.99 13.33 -5.98 13.66 -7 14 C-7.66 14.66 -8.32 15.32 -9 16 C-8.58171823 10.4229097 -6.38585455 6.34485382 -3 2 C-2.01 1.34 -1.02 0.68 0 0 Z " fill="#E6E7EA" transform="translate(412,442)"/>
<path d="M0 0 C0.99 0.33 1.98 0.66 3 1 C5.28070175 7.15789474 5.28070175 7.15789474 4 11 C4.66 11 5.32 11 6 11 C5.67 13.31 5.34 15.62 5 18 C4.34 17.67 3.68 17.34 3 17 C2.1484375 14.19921875 2.1484375 14.19921875 1.375 10.6875 C1.11460937 9.53636719 0.85421875 8.38523438 0.5859375 7.19921875 C0 4 0 4 0 0 Z " fill="#0081F3" transform="translate(148,213)"/>
<path d="M0 0 C0.33 0.66 0.66 1.32 1 2 C-3.75 6 -3.75 6 -6 6 C-6 6.66 -6 7.32 -6 8 C-7.390625 9.5078125 -7.390625 9.5078125 -9.25 11.125 C-9.85328125 11.66382812 -10.4565625 12.20265625 -11.078125 12.7578125 C-13 14 -13 14 -17 14 C-15.47774587 9.7830724 -12.7572849 8.23070528 -9.0625 5.875 C-8.00160156 5.19179687 -6.94070313 4.50859375 -5.84765625 3.8046875 C-4.43806641 2.91136719 -4.43806641 2.91136719 -3 2 C-2.01 1.34 -1.02 0.68 0 0 Z " fill="#00E6F4" transform="translate(485,67)"/>
<path d="M0 0 C0.33 0.66 0.66 1.32 1 2 C1.66 2 2.32 2 3 2 C1.125 8.875 1.125 8.875 0 10 C-1.56172745 10.08685603 -3.12729344 10.10702219 -4.69140625 10.09765625 C-5.63564453 10.09443359 -6.57988281 10.09121094 -7.55273438 10.08789062 C-8.54595703 10.07951172 -9.53917969 10.07113281 -10.5625 10.0625 C-11.55958984 10.05798828 -12.55667969 10.05347656 -13.58398438 10.04882812 C-16.05604849 10.03700007 -18.52799518 10.02051849 -21 10 C-21 9.67 -21 9.34 -21 9 C-15.06 9 -9.12 9 -3 9 C-3 7.35 -3 5.7 -3 4 C-2.34 4 -1.68 4 -1 4 C-0.67 2.68 -0.34 1.36 0 0 Z " fill="#006BB4" transform="translate(310,374)"/>
<path d="M0 0 C5.46864457 1.01591421 10.76390013 2.07091057 16 4 C16 4.66 16 5.32 16 6 C11.45422306 7.40843182 8.95728968 6.4862514 4.6875 4.5625 C3.61886719 4.08941406 2.55023438 3.61632812 1.44921875 3.12890625 C0.64097656 2.75636719 -0.16726562 2.38382812 -1 2 C-0.67 1.34 -0.34 0.68 0 0 Z " fill="#010619" transform="translate(246,308)"/>
<path d="M0 0 C0.6824176 0.02361099 1.36483521 0.04722198 2.06793213 0.07154846 C4.23822558 0.14785585 6.40813214 0.23202031 8.578125 0.31640625 C10.05336676 0.36965998 11.52862716 0.42240014 13.00390625 0.47460938 C16.61221412 0.60342575 20.2202171 0.73928819 23.828125 0.87890625 C23.828125 1.20890625 23.828125 1.53890625 23.828125 1.87890625 C11.948125 2.20890625 0.068125 2.53890625 -12.171875 2.87890625 C-11.171875 0.87890625 -11.171875 0.87890625 -9.55761719 0.24633789 C-6.3296116 -0.25081197 -3.26384677 -0.12038779 0 0 Z " fill="#F2F3F1" transform="translate(524.171875,504.12109375)"/>
<path d="M0 0 C3.21203935 2.49825283 6.17493137 5.0702992 9 8 C8.67 8.66 8.34 9.32 8 10 C7.34 10 6.68 10 6 10 C4.65117592 10.63474075 3.3153341 11.29848848 2 12 C0.86235649 7.73383684 0 4.43513689 0 0 Z " fill="#0093EF" transform="translate(109,69)"/>
<path d="M0 0 C0.66 0 1.32 0 2 0 C1.979375 0.886875 1.95875 1.77375 1.9375 2.6875 C1.99293479 5.62554387 2.34828153 8.14873168 3 11 C3 11.33 3 11.66 3 12 C-3.15234375 11.4140625 -3.15234375 11.4140625 -5 11 C-5.33 10.34 -5.66 9.68 -6 9 C-3.03 9.495 -3.03 9.495 0 10 C-0.185625 8.72125 -0.37125 7.4425 -0.5625 6.125 C-1.125 2.25 -1.125 2.25 0 0 Z " fill="#00AFF4" transform="translate(275,311)"/>
<path d="M0 0 C0.66 0.33 1.32 0.66 2 1 C2 6.94 2 12.88 2 19 C1.34 19.33 0.68 19.66 0 20 C0 17.03 0 14.06 0 11 C-0.66 10.67 -1.32 10.34 -2 10 C-1.34 6.7 -0.68 3.4 0 0 Z " fill="#000421" transform="translate(463,157)"/>
<path d="M0 0 C3.12961734 1.35280233 4.85505395 2.75512489 6.9375 5.4375 C8.8159131 7.73701831 10.03535955 9.02104735 12.625 10.5625 C15.76450769 12.46272834 17.13483264 14.89138774 19 18 C14.72116465 16.29268146 11.69474128 13.21502704 8.375 10.125 C7.49714844 9.33029297 7.49714844 9.33029297 6.6015625 8.51953125 C1.37053777 3.6844327 1.37053777 3.6844327 0 0 Z " fill="#0072EF" transform="translate(369,237)"/>
<path d="M0 0 C1.65 0 3.3 0 5 0 C5 0.66 5 1.32 5 2 C4.0925 2.33 3.185 2.66 2.25 3 C-1.98067867 5.60349457 -3.18546088 8.50634723 -5 13 C-5.66 12.01 -6.32 11.02 -7 10 C-6.34 10 -5.68 10 -5 10 C-5.33 9.01 -5.66 8.02 -6 7 C-5.5625 4.8125 -5.5625 4.8125 -5 3 C-4.360625 2.87625 -3.72125 2.7525 -3.0625 2.625 C-2.0415625 2.315625 -2.0415625 2.315625 -1 2 C-0.67 1.34 -0.34 0.68 0 0 Z " fill="#EEEEEE" transform="translate(419,449)"/>
<path d="M0 0 C0 5.04169875 -3.78637167 8.32159072 -7 12 C-9.9375 14.5625 -9.9375 14.5625 -12 16 C-11.690625 15.236875 -11.38125 14.47375 -11.0625 13.6875 C-10.32106407 11.81210323 -9.63771783 9.91315348 -9 8 C-8.4225 7.731875 -7.845 7.46375 -7.25 7.1875 C-3.95535686 5.44866056 -2.28799302 2.92354664 0 0 Z " fill="#00A6F6" transform="translate(328,359)"/>
<path d="M0 0 C0.66 0.33 1.32 0.66 2 1 C2.40729228 3.32156597 2.74438677 5.6568787 3 8 C1.02 8.99 -0.96 9.98 -3 11 C-2.53199289 6.94393835 -2.12046792 3.53411321 0 0 Z " fill="#EDEDED" transform="translate(216,447)"/>
<path d="M0 0 C1.98 0 3.96 0 6 0 C4.48328036 4.55015893 0.83108947 6.50057264 -3 9 C-3.66 8.67 -4.32 8.34 -5 8 C-4.01 7.67 -3.02 7.34 -2 7 C-2 5.68 -2 4.36 -2 3 C-1.34 2.34 -0.68 1.68 0 1 C0 0.67 0 0.34 0 0 Z " fill="#00BDF1" transform="translate(393,307)"/>
<path d="M0 0 C2.20914 3.31371 2.22481553 4.3446021 2.125 8.1875 C2.10695313 9.08855469 2.08890625 9.98960937 2.0703125 10.91796875 C2.03550781 11.94857422 2.03550781 11.94857422 2 13 C1.01 13.33 0.02 13.66 -1 14 C-2.59789351 9.04653013 -1.28306814 4.86717585 0 0 Z " fill="#00102D" transform="translate(470,129)"/>
<path d="M0 0 C2.64473175 2.64473175 4.55552541 5.56289122 6 9 C5.8447161 12.49388767 5.47932212 13.52067788 3 16 C2.49411853 14.08487728 1.99551609 12.16783078 1.5 10.25 C1.2215625 9.18265625 0.943125 8.1153125 0.65625 7.015625 C0 4 0 4 0 0 Z " fill="#0081F2" transform="translate(132,154)"/>
<path d="M0 0 C4.15151338 1.44202476 7.29978445 3.5010438 10.8125 6.125 C11.78832031 6.84945313 12.76414063 7.57390625 13.76953125 8.3203125 C14.50558594 8.87460937 15.24164063 9.42890625 16 10 C15.34 10.66 14.68 11.32 14 12 C11.85050462 10.37965717 9.7053859 8.75404206 7.5625 7.125 C6.95083984 6.66480469 6.33917969 6.20460938 5.70898438 5.73046875 C1.11328125 2.2265625 1.11328125 2.2265625 0 0 Z " fill="#0068EB" transform="translate(218,324)"/>
<path d="M0 0 C1.98 1.32 3.96 2.64 6 4 C5.67 4.99 5.34 5.98 5 7 C2.08517222 7.80967438 0.53886783 8.21845993 -2.3125 7.0625 C-2.869375 6.711875 -3.42625 6.36125 -4 6 C-3.01 6 -2.02 6 -1 6 C-1 5.34 -1 4.68 -1 4 C-0.01 4 0.98 4 2 4 C1.34 2.68 0.68 1.36 0 0 Z " fill="#009DF5" transform="translate(234,305)"/>
<path d="M0 0 C0.5775 0.20625 1.155 0.4125 1.75 0.625 C2.08 2.935 2.41 5.245 2.75 7.625 C-0.22 5.645 -3.19 3.665 -6.25 1.625 C-2.25 -0.375 -2.25 -0.375 0 0 Z " fill="#000C47" transform="translate(241.25,153.375)"/>
<path d="M0 0 C0.66 0.33 1.32 0.66 2 1 C-1.32364676 6.34673609 -5.19945661 7.47549821 -11 9 C-7.56638098 5.36440339 -4.2026393 2.63886654 0 0 Z " fill="#0DDEF0" transform="translate(435,102)"/>
<path d="M0 0 C-3.75 3 -3.75 3 -6 3 C-6.33 3.99 -6.66 4.98 -7 6 C-8.32 5.67 -9.64 5.34 -11 5 C-6.05136986 -1.43321918 -6.05136986 -1.43321918 0 0 Z " fill="#E8E9E9" transform="translate(329,450)"/>
<path d="M0 0 C1.97179598 2.95769397 2.36929854 4.16417962 2.75 7.5625 C2.84796875 8.34753906 2.9459375 9.13257813 3.046875 9.94140625 C3 12 3 12 1 14 C0.63495397 12.41913952 0.28339494 10.83516093 -0.0625 9.25 C-0.25972656 8.36828125 -0.45695312 7.4865625 -0.66015625 6.578125 C-0.99825872 4.01320972 -0.81158635 2.42908361 0 0 Z " fill="#0198D6" transform="translate(272,301)"/>
<path d="M0 0 C-1 2 -1 2 -4.0625 3.125 C-8.09858291 4.19682285 -11.84184728 4.1459001 -16 4 C-16 3.67 -16 3.34 -16 3 C-14.96875 2.71125 -13.9375 2.4225 -12.875 2.125 C-10.44388238 1.44094059 -8.12900748 0.68175273 -5.75 -0.1875 C-3 -1 -3 -1 0 0 Z " fill="#00BBFB" transform="translate(347,316)"/>
<path d="M0 0 C0.33 0 0.66 0 1 0 C1 3.63 1 7.26 1 11 C-2.96 10.67 -6.92 10.34 -11 10 C-11 9.67 -11 9.34 -11 9 C-5.555 8.505 -5.555 8.505 0 8 C0 5.36 0 2.72 0 0 Z " fill="#DFE1E5" transform="translate(567,496)"/>
<path d="M0 0 C0.99 0.99 1.98 1.98 3 3 C1.35 4.98 -0.3 6.96 -2 9 C-2 6 -2 6 -1 4 C-1.66 4 -2.32 4 -3 4 C-3 3.01 -3 2.02 -3 1 C-2.01 0.67 -1.02 0.34 0 0 Z " fill="#0087E0" transform="translate(314,372)"/>
<path d="M0 0 C2 3 2 3 1.8125 5.8125 C0.952223 9.18743283 -0.33104972 11.95235166 -2 15 C-3.53760842 11.92478317 -2.36599236 9.65324882 -1.5625 6.375 C-1.27503906 5.18648437 -0.98757813 3.99796875 -0.69140625 2.7734375 C-0.46324219 1.85820312 -0.23507812 0.94296875 0 0 Z " fill="#000B32" transform="translate(450,205)"/>
<path d="M0 0 C0.66 0.66 1.32 1.32 2 2 C1.73769988 6.72140208 0.96083162 9.37677209 -2 13 C-1.85915204 11.20793453 -1.71216299 9.41635083 -1.5625 7.625 C-1.48128906 6.62726563 -1.40007812 5.62953125 -1.31640625 4.6015625 C-1 2 -1 2 0 0 Z " fill="#00113C" transform="translate(486,70)"/>
<path d="M0 0 C1.1875 1.625 1.1875 1.625 2 4 C0.625 7.25 0.625 7.25 -1 10 C-1.99 10 -2.98 10 -4 10 C-2.8905928 6.51329166 -1.73662334 3.22515763 0 0 Z " fill="#0BD0E5" transform="translate(371,280)"/>
<path d="M0 0 C-1 2 -1 2 -2.84765625 2.6328125 C-3.57855469 2.79523438 -4.30945313 2.95765625 -5.0625 3.125 C-5.79597656 3.29257812 -6.52945312 3.46015625 -7.28515625 3.6328125 C-7.85105469 3.75398438 -8.41695313 3.87515625 -9 4 C-8.6875 2.0625 -8.6875 2.0625 -8 0 C-4.71023192 -1.09658936 -3.28696233 -0.79953138 0 0 Z " fill="#0AD7F5" transform="translate(345,314)"/>
<path d="M0 0 C-1.0975223 2.99324263 -1.67682892 3.84610901 -4.625 5.25 C-5.40875 5.4975 -6.1925 5.745 -7 6 C-7.33 5.34 -7.66 4.68 -8 4 C-7.34 4 -6.68 4 -6 4 C-6 2.68 -6 1.36 -6 0 C-3.50907189 -1.24546405 -2.58919267 -0.7767578 0 0 Z " fill="#F0F0F0" transform="translate(189,474)"/>
<path d="M0 0 C2.375 0.1875 2.375 0.1875 5 1 C6.3125 3.5625 6.3125 3.5625 7 6 C4.08482708 4.92598892 2.22189824 4.22189824 0 2 C0 1.34 0 0.68 0 0 Z " fill="#0042BB" transform="translate(259,352)"/>
<path d="M0 0 C1.0625 1.8125 1.0625 1.8125 2 4 C0.86525052 7.40424844 0.03188696 8.21653709 -3 10 C-3.99 9.67 -4.98 9.34 -6 9 C-5.566875 8.62875 -5.13375 8.2575 -4.6875 7.875 C-2.53847015 5.48718905 -1.35242016 2.8980432 0 0 Z " fill="#19D6E7" transform="translate(363,297)"/>
<path d="M0 0 C0.33 0.66 0.66 1.32 1 2 C-3.75 6 -3.75 6 -6 6 C-6 6.66 -6 7.32 -6 8 C-7.98 8.99 -7.98 8.99 -10 10 C-9.65514457 7.1157546 -9.21744593 6.1792182 -6.93359375 4.296875 C-6.10988281 3.78640625 -5.28617187 3.2759375 -4.4375 2.75 C-3.61121094 2.22921875 -2.78492188 1.7084375 -1.93359375 1.171875 C-1.29550781 0.78515625 -0.65742188 0.3984375 0 0 Z " fill="#43EEF5" transform="translate(485,67)"/>
<path d="M0 0 C1.2065625 0.0309375 1.2065625 0.0309375 2.4375 0.0625 C-0.30645564 3.00971162 -2.94587216 5.25418608 -6.5625 7.0625 C-7.2225 6.7325 -7.8825 6.4025 -8.5625 6.0625 C-2.5625 0.0625 -2.5625 0.0625 0 0 Z " fill="#00AFF0" transform="translate(360.5625,334.9375)"/>
<path d="M0 0 C0.99 0 1.98 0 3 0 C3 2.64 3 5.28 3 8 C2.34 7.01 1.68 6.02 1 5 C0.01 5.66 -0.98 6.32 -2 7 C-2 3 -2 3 0 0 Z " fill="#017CE9" transform="translate(346,166)"/>
<path d="M0 0 C1.65 0.33 3.3 0.66 5 1 C5 1.99 5 2.98 5 4 C2.69 4.66 0.38 5.32 -2 6 C-1.49396008 3.83125748 -1.00016187 2.00032373 0 0 Z " fill="#000E24" transform="translate(323,315)"/>
<path d="M0 0 C3.72433382 1.2125738 7.37802806 2.50859979 11 4 C11 4.66 11 5.32 11 6 C9.37276701 5.54965877 7.74826336 5.08944646 6.125 4.625 C5.22007812 4.36976563 4.31515625 4.11453125 3.3828125 3.8515625 C1 3 1 3 -1 1 C-0.67 0.67 -0.34 0.34 0 0 Z " fill="#00BBDC" transform="translate(231,278)"/>
<path d="M0 0 C3 2 3 2 3.8125 5.4375 C4 9 4 9 2 12 C0.86235649 7.73383684 0 4.43513689 0 0 Z " fill="#007FDD" transform="translate(109,69)"/>
<path d="M0 0 C3.11743233 1.50098594 6.15501823 3.02431822 9 5 C9 5.99 9 6.98 9 8 C4.7257442 6.4169423 2.73468206 3.49431596 0 0 Z " fill="#00DEF2" transform="translate(107,66)"/>
<path d="M0 0 C-0.33 1.32 -0.66 2.64 -1 4 C-1.66 4 -2.32 4 -3 4 C-3 4.99 -3 5.98 -3 7 C-5 6 -5 6 -7 3 C-2.25 0 -2.25 0 0 0 Z " fill="#EAE8EE" transform="translate(134,440)"/>
<path d="M0 0 C1.32 0.66 2.64 1.32 4 2 C3.67 2.66 3.34 3.32 3 4 C2.01 4 1.02 4 0 4 C0 4.66 0 5.32 0 6 C-0.99 5.67 -1.98 5.34 -3 5 C-2.01 3.35 -1.02 1.7 0 0 Z " fill="#EFF0F2" transform="translate(312,447)"/>
<path d="M0 0 C-1.0625 1.5 -1.0625 1.5 -3 3 C-6.6875 3.1875 -6.6875 3.1875 -10 3 C-9 1 -9 1 -7.25 0.375 C-4.79549443 -0.03408426 -2.4840589 -0.06900164 0 0 Z " fill="#ECECEB" transform="translate(522,504)"/>
<path d="M0 0 C0.99 0.33 1.98 0.66 3 1 C2.01 2.32 1.02 3.64 0 5 C-2.475 4.01 -2.475 4.01 -5 3 C-2 1 -2 1 0 0 Z " fill="#001328" transform="translate(370,277)"/>
<path d="M0 0 C2.31 1.98 4.62 3.96 7 6 C6.67 6.66 6.34 7.32 6 8 C3.5625 6.8125 3.5625 6.8125 1 5 C0.1875 2.3125 0.1875 2.3125 0 0 Z " fill="#000931" transform="translate(269,185)"/>
<path d="M0 0 C0.66 0.99 1.32 1.98 2 3 C0.35 4.32 -1.3 5.64 -3 7 C-3.33 6.01 -3.66 5.02 -4 4 C-2.68 2.68 -1.36 1.36 0 0 Z " fill="#0486F2" transform="translate(340,173)"/>
<path d="M0 0 C0.66 0.33 1.32 0.66 2 1 C0.3125 3.5 0.3125 3.5 -2 6 C-4.75 6.3125 -4.75 6.3125 -7 6 C-4.74259377 3.66475218 -2.7194239 1.81294927 0 0 Z " fill="#32DEEE" transform="translate(422,111)"/>
<path d="M0 0 C1.98 0.99 1.98 0.99 4 2 C3.67 3.32 3.34 4.64 3 6 C2.01 6 1.02 6 0 6 C0 4.02 0 2.04 0 0 Z " fill="#007EF4" transform="translate(118,100)"/>
<path d="M0 0 C0.66 0.33 1.32 0.66 2 1 C0.88820837 4.33537489 -0.47411298 5.63707344 -3 8 C-3.66 7.67 -4.32 7.34 -5 7 C-3.35 4.69 -1.7 2.38 0 0 Z " fill="#E7E7EA" transform="translate(126,444)"/>
<path d="M0 0 C0.66 0.33 1.32 0.66 2 1 C1 4 1 4 -1.4375 5.75 C-2.7059375 6.36875 -2.7059375 6.36875 -4 7 C-4.66 6.67 -5.32 6.34 -6 6 C-4.02 4.02 -2.04 2.04 0 0 Z " fill="#DADFE3" transform="translate(506,442)"/>
<path d="M0 0 C0.66 0 1.32 0 2 0 C2 1.65 2 3.3 2 5 C0.02 5.99 0.02 5.99 -2 7 C-1.34 4.69 -0.68 2.38 0 0 Z " fill="#00121F" transform="translate(326,300)"/>
<path d="M0 0 C1.27351308 2.54702616 0.80191925 3.4282945 0.0625 6.125 C-0.13214844 6.84945312 -0.32679688 7.57390625 -0.52734375 8.3203125 C-0.68332031 8.87460938 -0.83929688 9.42890625 -1 10 C-3 7 -3 7 -2.75 4.4375 C-2 2 -2 2 0 0 Z " fill="#009ADD" transform="translate(463,155)"/>
<path d="M0 0 C0.33 0 0.66 0 1 0 C1.36923077 7.38461538 1.36923077 7.38461538 -0.5 10.5 C-0.995 10.995 -1.49 11.49 -2 12 C-2.21278058 7.53160785 -1.59138085 4.17737474 0 0 Z " fill="#00E2FD" transform="translate(320,315)"/>
<path d="M0 0 C0.33 0.66 0.66 1.32 1 2 C1.66 2 2.32 2 3 2 C3 1.34 3 0.68 3 0 C3.66 0 4.32 0 5 0 C5 1.65 5 3.3 5 5 C4.01 5.495 4.01 5.495 3 6 C1.5 4.6875 1.5 4.6875 0 3 C0 2.01 0 1.02 0 0 Z " fill="#000A2A" transform="translate(452,198)"/>
<path d="M0 0 C-1.32 1.32 -2.64 2.64 -4 4 C-5.32 3.34 -6.64 2.68 -8 2 C-4.77208445 -0.1519437 -3.71599191 -0.20086443 0 0 Z " fill="#0B0F1E" transform="translate(425,109)"/>
<path d="M0 0 C0.66 0 1.32 0 2 0 C2.33 2.97 2.66 5.94 3 9 C0.23776722 6.23776722 0.42143709 3.79293383 0 0 Z " fill="#0088FA" transform="translate(115,90)"/>
</svg>
