<svg xmlns="http://www.w3.org/2000/svg" viewBox="0 0 400 400" width="400" height="400">
  <rect width="400" height="400" fill="#4a5568" />
  <rect width="380" height="380" x="10" y="10" fill="none" stroke="#fff" stroke-width="4" stroke-dasharray="10,10" opacity="0.5" />
  <circle cx="200" cy="180" r="100" fill="#fff" opacity="0.2" />
  <svg x="100" y="80" width="200" height="200" viewBox="0 0 24 24" fill="none" stroke="#fff" stroke-width="2" stroke-linecap="round" stroke-linejoin="round">
    <path d="M20 7H4a2 2 0 0 0-2 2v10a2 2 0 0 0 2 2h16a2 2 0 0 0 2-2V9a2 2 0 0 0-2-2z M16 21V5a2 2 0 0 0-2-2h-4a2 2 0 0 0-2 2v16" />
  </svg>
  <text x="200" y="320" font-family="sans-serif" font-size="40" font-weight="bold" fill="#fff" text-anchor="middle" dominant-baseline="middle">
    Arms Keeper
  </text>
</svg>